<?xml version="1.0" encoding="utf-8"?>
<!-- Generator: Adobe Illustrator 15.0.0, SVG Export Plug-In . SVG Version: 6.00 Build 0)  -->
<!DOCTYPE svg PUBLIC "-//W3C//DTD SVG 1.1//EN" "http://www.w3.org/Graphics/SVG/1.1/DTD/svg11.dtd">
<svg version="1.1" id="Layer_1" xmlns="http://www.w3.org/2000/svg" xmlns:xlink="http://www.w3.org/1999/xlink" x="0px" y="0px"
	 width="132px" height="180px" viewBox="0 0 132 180" enable-background="new 0 0 132 180" xml:space="preserve">
<g>
	<g>
		<g>
			<g>
				<path fill-rule="evenodd" clip-rule="evenodd" fill="#FFFFFF" d="M130.99,147.375H1.01c0,0,17.24-29.981,65.415-29.981
					C114.598,117.394,130.99,147.375,130.99,147.375z"/>
				<path fill-rule="evenodd" clip-rule="evenodd" fill="#FFFFFF" d="M130.99,147.375H1.01c0,0,17.24,29.979,65.415,29.979
					C114.598,177.354,130.99,147.375,130.99,147.375z"/>
			</g>
		</g>
	</g>
	<path fill-rule="evenodd" clip-rule="evenodd" fill="#DCEFEF" d="M42.042,120.275v32.263c0,0,10.077-0.596,10.077-11.566
		c0-13.884,0.021-23.578,0.021-23.578L42.042,120.275z"/>
	<path fill-rule="evenodd" clip-rule="evenodd" fill="#DCEFEF" d="M89.553,119.986v35.295c0,0-29.293-1.896-29.293-32.06
		C60.26,100.197,89.553,119.986,89.553,119.986z"/>
	<path fill-rule="evenodd" clip-rule="evenodd" fill="#F39B9C" d="M52.141,140.182c0,0,0,4.221,0,10.813
		c0,0,10.696-2.316,10.696-12.759c0-10.443-10.693,1.814-10.693,1.814L52.141,140.182z"/>
	<path fill-rule="evenodd" clip-rule="evenodd" fill="#F39B9C" d="M67.285,177.349c-0.284,0.007-0.572,0.007-0.86,0.007
		c-5.103,0-9.859-0.338-14.285-0.94v-25.419C59.507,154.082,64.307,165.986,67.285,177.349z"/>
	<g>
		<path fill-rule="evenodd" clip-rule="evenodd" fill="#EED2B9" d="M52.141,96.362l-0.021,44.609c0.13-0.026-0.121,0.036,0,0
			c3.531-0.91,7.832-1.387,10.717-2.735c15.728-7.315,20.937-41.901,20.937-41.901L52.141,96.362z"/>
		<path fill-rule="evenodd" clip-rule="evenodd" fill="#DBBAA1" d="M84.917,95.865v23.024c-2.264,8.772-8.968,12.632-22.081,19.347
			c0-19.577-10.696-19.245-10.696-19.245l-0.021-22.623L84.917,95.865z"/>
		<path fill-rule="evenodd" clip-rule="evenodd" fill="#24226A" d="M43.189,67.749V56.996c0,0,21.753-5.253,36.998,0.045
			c8.891,3.09,15.592,11.654,15.592,22.226c0,8.916-1.602,13.825-10.861,24.592l0.085-5.943L43.189,67.749z"/>
		<path fill-rule="evenodd" clip-rule="evenodd" fill="#EED2B9" d="M84.917,95.864v7.995c0,0-3.742,10.646-32.777,15.136h-4.626
			l-4.451-29.74c0,0,2.109-4.265,2.109-7.305c0-3.031-1.979-3.514-1.979-3.514V67.795c0-3.875,22.562,10.618,33.365,3.235v17.511
			l4.887-8.01C87.283,81.895,90.289,90.165,84.917,95.864z"/>
		<linearGradient id="SVGID_1_" gradientUnits="userSpaceOnUse" x1="70.0254" y1="100.7422" x2="63.5588" y2="91.2217">
			<stop  offset="0.1232" style="stop-color:#FFFFFF;stop-opacity:0.85"/>
			<stop  offset="0.2847" style="stop-color:#FDFDFD;stop-opacity:0.6934"/>
			<stop  offset="1" style="stop-color:#F8F8F9;stop-opacity:0"/>
			<stop  offset="1" style="stop-color:#FFFFFF;stop-opacity:0"/>
		</linearGradient>
		<path fill-rule="evenodd" clip-rule="evenodd" fill="url(#SVGID_1_)" d="M76.719,88.448c0,1.344-0.815,7.098-9.366,7.098
			c-8.549,0-17.683,0-17.683,0l-0.088-7.098C79.453,78.949,76.719,85.977,76.719,88.448z"/>
	</g>
	<path fill-rule="evenodd" clip-rule="evenodd" fill="#DBBAA1" d="M52.119,69.487v49.508h-4.605l-4.451-29.74
		c0,0,2.109-4.265,2.109-7.305c0-3.031-1.979-3.514-1.979-3.514V67.795C43.193,66.233,47.041,67.718,52.119,69.487z"/>
	<g>
		<g>
			<path fill="#BFDDDD" d="M110.632,29.531c0,1.463-0.251,2.858-0.705,4.162c-1.721,4.881-6.375,8.375-11.84,8.375
				c-0.129,0-0.257,0-0.38-0.007C93.379,47.677,86.588,51.3,78.964,51.3c-6.86,0-13.03-2.918-17.344-7.58
				c-0.955,0.448-2.031,0.697-3.152,0.697c-2.077,0-3.965-0.848-5.314-2.228c-0.34,0.022-0.683,0.03-1.022,0.03
				c-6.905,0-12.946-3.662-16.297-9.148c-1.319-2.153-2.22-4.586-2.6-7.193c-0.531,0.121-1.091,0.189-1.66,0.189
				c-4.108,0-7.442-3.335-7.442-7.443c0-2.251,0.999-4.269,2.584-5.624c1.303-1.137,3-1.819,4.858-1.819
				c1.706,0,3.282,0.576,4.541,1.546c3.402-5.237,9.301-8.694,16.017-8.694c4.828,0,9.24,1.789,12.596,4.737
				c2.351-1.766,5.035-3.115,7.952-3.911c2.002-0.554,4.108-0.849,6.285-0.849c9.285,0,17.327,5.359,21.192,13.151
				C106.099,18.145,110.632,23.315,110.632,29.531z"/>
		</g>
		<circle fill="#BFDDDD" cx="26.158" cy="45.079" r="8.734"/>
		<linearGradient id="SVGID_2_" gradientUnits="userSpaceOnUse" x1="13.5537" y1="45.624" x2="28.4522" y2="48.8239">
			<stop  offset="0" style="stop-color:#EFEFF0;stop-opacity:0.65"/>
			<stop  offset="0.2897" style="stop-color:#F2F2F4;stop-opacity:0.4617"/>
			<stop  offset="1" style="stop-color:#F7F6F8;stop-opacity:0"/>
			<stop  offset="1" style="stop-color:#FFFFFF;stop-opacity:0"/>
		</linearGradient>
		<circle fill="url(#SVGID_2_)" cx="23.231" cy="47.704" r="7.617"/>
		<linearGradient id="SVGID_3_" gradientUnits="userSpaceOnUse" x1="96.7842" y1="59.6284" x2="60.4649" y2="8.8293">
			<stop  offset="0.1232" style="stop-color:#FFFFFF;stop-opacity:0.85"/>
			<stop  offset="0.3351" style="stop-color:#FCFCFD;stop-opacity:0.6445"/>
			<stop  offset="1" style="stop-color:#F7F6F8;stop-opacity:0"/>
			<stop  offset="1" style="stop-color:#FFFFFF;stop-opacity:0"/>
		</linearGradient>
		<path fill="url(#SVGID_3_)" d="M110.632,29.531c0,1.463-0.251,2.858-0.705,4.162c-0.454,0.106-0.93,0.167-1.416,0.167
			c-1.51,0-2.89-0.554-3.943-1.478c-1.016,0.826-2.062,1.613-3.146,2.365c-0.014,0.016-0.036,0.03-0.06,0.045
			c-0.03,0.022-0.06,0.045-0.098,0.068c-0.221,0.151-0.44,0.303-0.667,0.447c-0.356,0.243-0.719,0.47-1.078,0.705
			c-0.014,0.006-0.029,0.015-0.052,0.03c-1.077,0.674-2.185,1.312-3.312,1.896h-0.008c-3.587,1.895-7.429,3.358-11.472,4.327
			c-0.362,0.092-0.732,0.175-1.097,0.25c-3.441,0.75-7.021,1.144-10.679,1.144c-6.724,0-13.122-1.318-18.974-3.729
			c0,0,0,0.008-0.008,0c-0.726-0.287-1.439-0.599-2.145-0.932c-0.956-0.44-1.895-0.917-2.811-1.418
			c-0.29-0.158-0.585-0.318-0.865-0.485c-0.197-0.105-0.394-0.22-0.584-0.333c-0.764-0.455-1.522-0.925-2.258-1.417
			c-0.956-0.622-1.88-1.29-2.782-1.988C35.59,28.098,30.118,21.086,26.715,13c1.303-1.137,3-1.819,4.858-1.819
			c1.706,0,3.282,0.576,4.541,1.546c3.402-5.237,9.301-8.694,16.017-8.694c4.828,0,9.24,1.789,12.596,4.737
			c2.351-1.766,5.035-3.115,7.952-3.911c2.002-0.554,4.108-0.849,6.285-0.849c9.285,0,17.327,5.359,21.192,13.151
			C106.099,18.145,110.632,23.315,110.632,29.531z"/>
		<linearGradient id="SVGID_4_" gradientUnits="userSpaceOnUse" x1="58.4531" y1="25.7422" x2="28.0037" y2="10.887">
			<stop  offset="0" style="stop-color:#EFEFF0;stop-opacity:0.65"/>
			<stop  offset="0.2897" style="stop-color:#F2F2F4;stop-opacity:0.4617"/>
			<stop  offset="1" style="stop-color:#F7F6F8;stop-opacity:0"/>
			<stop  offset="1" style="stop-color:#FFFFFF;stop-opacity:0"/>
		</linearGradient>
		<path fill="url(#SVGID_4_)" d="M62.799,19.603c0,9.349-7.585,16.934-16.936,16.934c-9.354,0-16.937-7.585-16.937-16.934
			c0-9.355,7.583-16.94,16.937-16.94C55.214,2.663,62.799,10.248,62.799,19.603z"/>
		<circle fill="#BFDDDD" cx="36.469" cy="58.751" r="3.43"/>
		<g>
			<path fill="#ACC4DD" d="M53.928,27.74c0,0-4.781,7.197,8.009,6.184C74.73,32.911,85.94,22.916,85.281,17.51
				c1.307,3.513-2.874,14.381-16.36,18.238c-13.487,3.856-16.06,0.748-16.06,0.748S48.493,34.106,53.928,27.74z"/>
			<path fill="#7B90B2" d="M54.541,26.925c0,0-5.32,6.997,7.47,5.985c12.792-1.014,25.215-11.7,22.993-16.288
				c1.73,3.567-2.521,14.256-16.009,18.112c-13.486,3.856-16.32,1.053-16.32,1.053S49.109,33.29,54.541,26.925z"/>
			<path fill="#FBCC5A" d="M87.273,28.539c0,5.393-11.602,4.351-11.602,4.351l2.233-3.235H58.941l12.94,11.714l0.892-2.344
				C72.772,39.024,87.273,40.401,87.273,28.539z"/>
			<path fill="#F9F4C0" d="M87.273,27.184c0,5.391-11.602,4.349-11.602,4.349l2.233-3.234H58.941l12.94,11.714l0.892-2.344
				C72.772,37.669,87.273,39.045,87.273,27.184z"/>
			<path fill="#FFF6C5" d="M80.353,31.549c0,0,8.456-1.213-0.691-10.213c-9.146-8.998-24.095-10.243-27.446-6.873
				c1.56-3.643,12.496-7.257,24.248,0.403c11.75,7.66,11.288,11.408,11.288,11.408S88.719,31.481,80.353,31.549z"/>
			<path fill="#FBCC5A" d="M79.358,31.578c0,0,8.771-0.564-0.376-9.564c-9.147-8.999-25.36-11.379-27.369-6.693
				c1.563-3.644,12.419-7.438,24.172,0.223c11.75,7.662,11.487,11.641,11.487,11.641S87.729,31.51,79.358,31.578z"/>
			<path fill="#7B90B2" d="M51.73,34.699c-4.071-3.535,4.319-11.615,4.319-11.615l0.981,3.805l12.427-14.325l-17.328,2.099
				l1.184,2.208C53.313,16.872,42.772,26.925,51.73,34.699z"/>
			<path fill="#ACC4DD" d="M52.674,35.787c-4.075-3.534,4.317-11.616,4.317-11.616l0.979,3.807l12.429-14.325L53.07,15.751
				l1.187,2.209C54.256,17.96,43.711,28.013,52.674,35.787z"/>
		</g>
	</g>
</g>
</svg>
