<?xml version="1.0" encoding="utf-8"?>
<!-- Generator: Adobe Illustrator 15.0.0, SVG Export Plug-In . SVG Version: 6.00 Build 0)  -->
<!DOCTYPE svg PUBLIC "-//W3C//DTD SVG 1.1//EN" "http://www.w3.org/Graphics/SVG/1.1/DTD/svg11.dtd">
<svg version="1.1" id="Слой_1" xmlns="http://www.w3.org/2000/svg" xmlns:xlink="http://www.w3.org/1999/xlink" x="0px" y="0px"
	 width="120px" height="120px" viewBox="0 0 120 120" enable-background="new 0 0 120 120" xml:space="preserve">
<g>
	<path fill-rule="evenodd" clip-rule="evenodd" fill="#C6E1DF" d="M61.179,108.373c26.644,0,48.374-21.73,48.374-48.373
		c0-26.643-21.73-48.374-48.374-48.374c-26.643,0-48.373,21.731-48.373,48.374C12.806,86.643,34.536,108.373,61.179,108.373"/>
	<path fill-rule="evenodd" clip-rule="evenodd" fill="#DEEFED" d="M17.098,50.988c0,0-2.458,12.832,15.24,17.84V51.004
		L17.098,50.988z"/>
	<path fill-rule="evenodd" clip-rule="evenodd" fill="#F08357" d="M36.425,36.918v-3.701C20.189,22.294,1.649,39.932,17.098,54.464
		l-0.005-2.76L36.425,36.918z"/>
	<path fill-rule="evenodd" clip-rule="evenodd" fill="#F39B9C" d="M32.333,61.449v7.375c0,0-4.771-1.289-4.771-10.446L32.333,61.449
		z"/>
	<path fill-rule="evenodd" clip-rule="evenodd" fill="#F39B9C" d="M32.333,68.824V98.99c-2.505-1.315-5.632-4.598-8.781-8.556
		c0.06-0.657,0.238-2.353,0.601-4.533C25.112,80.101,27.393,70.896,32.333,68.824"/>
	<path fill-rule="evenodd" clip-rule="evenodd" fill="#EED2B9" d="M36.425,47.721L34.37,61.454h-2.039
		c-13.407-2.074-15.233-6.989-15.233-6.989v-2.744c-4.792-4.792,0.132-7.849,2.066-7.849l-0.006-4.567
		c0-4.466,5.458,0.292,8.499-1.763c0.401,1.208-3.546,2.668-3.546,2.668c5.19,1.514,9.328-2.695,9.328-2.695
		s2.926-2.388,2.926-0.598v5.809c0,0-0.913,0.222-0.913,1.621C35.452,45.75,36.425,47.721,36.425,47.721"/>
	<path fill-rule="evenodd" clip-rule="evenodd" fill="#6A73B6" d="M32.33,54.464c0,0,9.531,4.523,9.962,50.086l-0.165-0.071h-0.002
		l-0.164-0.071l-0.002-0.001l-0.165-0.071l-0.001-0.001l-0.164-0.072h-0.002l-0.164-0.072l-0.002-0.001l-0.163-0.073l-0.001-0.001
		l-0.164-0.074l-0.001-0.001l-0.163-0.074l-0.001-0.001l-0.163-0.075h-0.001l-0.162-0.075l-0.002-0.002l-0.162-0.076l-0.002-0.001
		l-0.161-0.077h-0.002l-0.161-0.077l-0.001-0.001l-0.161-0.078l-0.002-0.001l-0.16-0.079l-0.001-0.001l-0.161-0.079h-0.002
		l-0.159-0.08l-0.002-0.001l-0.159-0.08l-0.002-0.001l-0.159-0.081l-0.001-0.001l-0.16-0.081l-0.001-0.001l-0.158-0.082
		l-0.001-0.001l-0.159-0.083h-0.001l-0.158-0.084h-0.002l-0.158-0.084l-0.001-0.001l-0.157-0.084l-0.001-0.001l-0.157-0.086h-0.001
		l-0.157-0.086h-0.001l-0.157-0.087h-0.001l-0.156-0.087l-0.001-0.001l-0.156-0.087l-0.001-0.001l-0.155-0.088l-0.001-0.001
		l-0.156-0.088v-0.001l-0.155-0.09h-0.001l-0.155-0.09v-0.001l-0.154-0.09h-0.001l-0.154-0.092l-0.001-0.001l-0.153-0.091H36.35
		l-0.153-0.092l-0.001-0.001l-0.153-0.093v-0.001l-0.153-0.093l-0.153-0.095l-0.152-0.094h-0.001l-0.151-0.096l-0.152-0.096
		l-0.151-0.096l-0.151-0.098h-0.001l-0.149-0.098l-0.15-0.097h-0.001l-0.149-0.1h-0.001l-0.149-0.099v-0.001l-0.149-0.099v-0.001
		l-0.148-0.1v-0.001l-0.148-0.1l-0.148-0.102l-0.147-0.102l-0.147-0.103l-0.147-0.103l-0.146-0.104l-0.146-0.104l-0.145-0.104
		l-0.145-0.105l-0.145-0.104l-0.144-0.106L32.33,98.84V54.464z M32.33,101.752L32.33,101.752l0.002-2.762l-0.001-0.001H32.33v-0.001
		V101.752z"/>
	<path fill-rule="evenodd" clip-rule="evenodd" fill="#DBBAA1" d="M32.33,61.454V38.129c0.266-0.05,4.095-3.226,4.095-1.211
		l-0.06,5.807c0,0-0.913,0.183-0.913,1.586c0,1.402,0.973,3.41,0.973,3.41l-2.036,13.737L32.33,61.454z"/>
	<path fill-rule="evenodd" clip-rule="evenodd" fill="#6366AC" d="M32.333,98.99c-8.15-1.173-23.648-21.785-23.648-30.754
		c0,0,9.335-5.373,4.144-5.373c-5.19,0-6.454-8.399-6.454-8.399h10.723c0,13.101,3.443,23.811,7.055,31.437
		C28.141,94.318,32.333,98.99,32.333,98.99"/>
	<path fill-rule="evenodd" clip-rule="evenodd" fill="#F08357" d="M32.33,51.704c0,0-4.673,0.971-4.673,2.76v6.051
		c0,0,3.899,0.952,4.673,0.939c0.774-0.014,2.059,0.004,2.059,0.004l1.101-7.432C35.49,54.026,34.151,52.457,32.33,51.704"/>
	<path fill-rule="evenodd" clip-rule="evenodd" fill="#D46D57" d="M32.33,51.704v9.75c0.774-0.014,2.059,0.004,2.059,0.004
		l1.101-7.432C35.49,54.026,34.151,52.457,32.33,51.704"/>
	<path fill-rule="evenodd" clip-rule="evenodd" fill="#DEEFED" d="M103.64,48.209c-1.664,2.643-5.715,6.637-15.004,6.637v-15.24
		c6.188-7.279,12.544,0.731,15.004,4.538V48.209z"/>
	<path fill-rule="evenodd" clip-rule="evenodd" fill="#BE794F" d="M84.442,25.52v-3.702c6.977-3.417,14.211-4.496,19.197-2.488
		c15.008,7.513,0.438,18.294,0,26.238c-1.115-0.645-2.708-2.452-2.708-7.519C100.932,30.255,84.442,25.52,84.442,25.52"/>
	<path fill-rule="evenodd" clip-rule="evenodd" fill="#F39B9C" d="M88.636,96.691c0,8.875,8.808-17.71,8.808-17.71
		s-1.467-21.059-8.808-24.135c0,0,4.771-2.036,4.771-8.219l-4.771,1.483V96.691z"/>
	<path fill-rule="evenodd" clip-rule="evenodd" fill="#AA6B4A" d="M84.442,21.818c8.99,0,7.727,6.394,13.657,6.394l-6.252,2.394
		l-7.346-5.088L84.442,21.818z"/>
	<path fill-rule="evenodd" clip-rule="evenodd" fill="#EED2B9" d="M83.268,38.761c0,0,0.41,1.318,1.737,1.318l2.04,8.292
		c13.407-2.074,14.665-5.305,14.665-5.305v-2.743c0.837-0.391,1.469-0.868,1.93-1.391v-5.456c-0.536-0.614-1.226-1.003-1.935-1.003
		c-2.666,0,0.005-6.346,0.005-6.346c-7.174,5.947-14.281-0.011-14.281-0.011s-2.927-2.387-2.927-0.598v5.809
		c0,0,0.914,0.222,0.914,1.622C85.416,34.352,83.268,38.761,83.268,38.761"/>
	<path fill-rule="evenodd" clip-rule="evenodd" fill="#BE794F" d="M101.704,32.473l0.006-6.346l-3.61,2.085
		C98.1,28.212,97.593,32.473,101.704,32.473"/>
	<path fill-rule="evenodd" clip-rule="evenodd" fill="#DBBAA1" d="M85.416,32.949v-8.032c0,0-0.914-0.396-0.914,0.601v5.809
		C84.502,31.327,85.416,31.76,85.416,32.949"/>
	<path fill-rule="evenodd" clip-rule="evenodd" fill="#0071B6" d="M103.64,57.564L90.876,82.42v19.614
		c1.246,0.232,6.97-3.985,12.764-10.339C121.619,70.168,111.325,41.535,103.64,57.564"/>
	<path fill-rule="evenodd" clip-rule="evenodd" fill="#1B9CD6" d="M90.875,82.42L67.869,62.381l-5.206,5.69
		c0,0,17.679,33.963,28.212,33.963C90.875,102.034,102.56,92.857,90.875,82.42"/>
	<path fill-rule="evenodd" clip-rule="evenodd" fill="#DEEFED" d="M75.165,56.313l-2.566,7.808c0,0-20.641-13.802-25.65-17.953
		c0,0,5.537-2.875,5.242-5.562C60.992,37.67,65,54.338,75.165,56.313"/>
	<path fill-rule="evenodd" clip-rule="evenodd" fill="#FEF4EF" d="M75.165,58.476l-2.566,7.808c0,0-20.641-13.802-25.65-17.954
		c0,0,5.537-2.873,5.242-5.561C60.992,39.833,65,56.501,75.165,58.476"/>
	<path fill-rule="evenodd" clip-rule="evenodd" fill="#EED2B9" d="M67.424,60.374l-4.47,5.057c0,0-5.47,0.023-9.613-9.078
		c-2.34-2.345-1.007-3.975-1.007-3.975s5.458,3.71,6.636,2.494c1.177-1.215-3.781-1.081-1.444-3.747
		c0.544,1.075,1.278,1.047,6.106,2.634C66.371,56.422,67.424,60.374,67.424,60.374"/>
	<path fill-rule="evenodd" clip-rule="evenodd" fill="#DBBAA1" d="M87.044,62.615l-4.568-6.903
		c-4.818-2.069-6.906-0.494-6.906-0.494c-2.316,2.105-4.016,3.14-5.317,3.523c0.907,2.135,4.502,0.267,7.232-1.407
		c1.157-0.709,1.721-0.261,2.316,0.544c0.596,0.804,0.535,4.054-4.136,1.706c-1.813-0.778-2.941,1.029-2.941,1.029
		c6.791,2.683,5.875,4.908,9.419,6.43c2.087,0.896,2.705,0.69,2.705,0.69L87.044,62.615z"/>
	
		<rect x="68.366" y="56.674" transform="matrix(-0.8626 0.5059 -0.5059 -0.8626 173.2854 67.0756)" fill-rule="evenodd" clip-rule="evenodd" fill="#0071B6" width="18.336" height="0.792"/>
</g>
<g>
	<defs>
		<path id="SVGID_1_" d="M19.312,47.853c0,0.643,0.385,3.365,4.368,3.445h8.766L32.486,48v-0.147
			c-5.496-1.748-8.718-2.343-10.601-2.343C18.8,45.51,19.312,47.108,19.312,47.853"/>
	</defs>
	<clipPath id="SVGID_2_">
		<use xlink:href="#SVGID_1_"  overflow="visible"/>
	</clipPath>
	<g clip-path="url(#SVGID_2_)">
		<defs>
			<rect id="SVGID_3_" x="17.985" y="43.241" width="14.502" height="8.057"/>
		</defs>
		<clipPath id="SVGID_4_">
			<use xlink:href="#SVGID_3_"  overflow="visible"/>
		</clipPath>
	</g>
</g>
<g>
	
		<linearGradient id="SVGID_5_" gradientUnits="userSpaceOnUse" x1="-6275.1553" y1="40.9458" x2="-6273.6846" y2="38.2278" gradientTransform="matrix(-1 0 0 1 -6181.833 0)">
		<stop  offset="0.0621" style="stop-color:#FFFFFF"/>
		<stop  offset="1" style="stop-color:#FFFFFF;stop-opacity:0"/>
	</linearGradient>
	<path opacity="0.45" fill="url(#SVGID_5_)" d="M98.331,36.757c0,0.662-0.402,3.496-4.613,3.496c-4.21,0-8.708,0-8.708,0
		l-0.043-3.496C99.677,32.08,98.331,35.54,98.331,36.757z"/>
	<linearGradient id="SVGID_6_" gradientUnits="userSpaceOnUse" x1="24.1011" y1="52.0161" x2="25.5714" y2="49.2984">
		<stop  offset="0.0621" style="stop-color:#FFFFFF"/>
		<stop  offset="1" style="stop-color:#FFFFFF;stop-opacity:0"/>
	</linearGradient>
	<path opacity="0.45" fill="url(#SVGID_6_)" d="M19.094,47.828c0,0.662,0.401,3.495,4.612,3.495c4.21,0,8.708,0,8.708,0l0.043-3.495
		C17.749,43.15,19.094,46.611,19.094,47.828z"/>
	<path fill="#9CD3F4" d="M74.217,40.301c0,0-2.893,1.852-5.484-1.935v-0.005c-1.492,0.686-3.148,1.067-4.902,1.067
		c-6.522,0-11.814-5.296-11.814-11.82c0-6.529,5.292-11.82,11.814-11.82c6.531,0,11.82,5.291,11.82,11.82
		c0,3.584-1.596,6.797-4.119,8.964C71.436,38.266,74.217,40.301,74.217,40.301z"/>
	<path fill="#9CD3F4" d="M44.369,86.466c0,0-0.563,2.914,3.307,3.784h0.003c-0.071,1.415,0.152,2.871,0.712,4.276
		c2.086,5.242,8.031,7.798,13.27,5.71c5.246-2.083,7.805-8.026,5.719-13.268c-2.088-5.242-8.029-7.801-13.274-5.716
		c-2.879,1.146-4.949,3.457-5.883,6.176C46.893,88.049,44.369,86.466,44.369,86.466z"/>
	<g>
		<path fill="#FFFFFF" d="M68.361,24.318c0,1.683-0.656,3.005-1.973,3.965l-0.588,0.399c-0.887,0.644-1.412,1.442-1.574,2.391
			l-0.078,0.436l-2.143-0.721l0.152-0.682c0.34-1.063,0.885-1.878,1.633-2.449l0.891-0.702c0.998-0.784,1.523-1.765,1.574-2.941
			c-0.051-0.582-0.254-1.082-0.607-1.499c-0.365-0.405-0.797-0.607-1.291-0.607c-0.984,0-1.98,0.803-2.979,2.41l-0.303,0.57
			l-1.158-1.651c1.328-2.175,2.806-3.264,4.439-3.264c1.164,0,2.127,0.431,2.887,1.29C67.988,22.099,68.361,23.116,68.361,24.318z
			 M65.174,33.996c-0.037,0.468-0.221,0.872-0.551,1.214c-0.34,0.342-0.752,0.531-1.232,0.569c-0.494-0.039-0.916-0.228-1.271-0.569
			c-0.34-0.342-0.512-0.747-0.512-1.214c0-0.506,0.172-0.93,0.512-1.272c0.342-0.341,0.764-0.512,1.271-0.512
			c0.492,0,0.91,0.177,1.252,0.531C64.959,33.084,65.137,33.502,65.174,33.996z"/>
	</g>
	<path fill="#FFFFFF" d="M63.959,88.954H52.25c-0.243,0-0.438-0.198-0.438-0.44c0-0.243,0.195-0.439,0.438-0.439h11.708
		c0.242,0,0.439,0.196,0.439,0.439C64.398,88.756,64.201,88.954,63.959,88.954z"/>
	<path fill="#FFFFFF" d="M63.959,91.186H52.25c-0.243,0-0.438-0.198-0.438-0.438c0-0.243,0.195-0.441,0.438-0.441h11.708
		c0.242,0,0.439,0.198,0.439,0.441C64.398,90.987,64.201,91.186,63.959,91.186z"/>
	<path fill="#FFFFFF" d="M63.959,93.45H52.25c-0.243,0-0.438-0.198-0.438-0.44c0-0.241,0.195-0.438,0.438-0.438h11.708
		c0.242,0,0.439,0.196,0.439,0.438C64.398,93.252,64.201,93.45,63.959,93.45z"/>
	
		<linearGradient id="SVGID_7_" gradientUnits="userSpaceOnUse" x1="97.8994" y1="-154.6025" x2="122.2647" y2="-149.3695" gradientTransform="matrix(0.6014 0.7989 -0.7989 0.6014 -128.1309 25.9485)">
		<stop  offset="0" style="stop-color:#F1F1F2;stop-opacity:0.65"/>
		<stop  offset="0.1843" style="stop-color:#F3F3F4;stop-opacity:0.5302"/>
		<stop  offset="1" style="stop-color:#F8F8F9;stop-opacity:0"/>
		<stop  offset="1" style="stop-color:#FFFFFF;stop-opacity:0"/>
	</linearGradient>
	<circle fill="url(#SVGID_7_)" cx="61.06" cy="25.87" r="12.458"/>
	
		<linearGradient id="SVGID_8_" gradientUnits="userSpaceOnUse" x1="69.1582" y1="-93.4751" x2="89.8323" y2="-89.0348" gradientTransform="matrix(0.8766 -0.4811 0.4811 0.8766 31.7002 211.1671)">
		<stop  offset="0" style="stop-color:#F1F1F2;stop-opacity:0.65"/>
		<stop  offset="0.1843" style="stop-color:#F3F3F4;stop-opacity:0.5302"/>
		<stop  offset="1" style="stop-color:#F8F8F9;stop-opacity:0"/>
		<stop  offset="1" style="stop-color:#FFFFFF;stop-opacity:0"/>
	</linearGradient>
	<circle fill="url(#SVGID_8_)" cx="60.512" cy="92.023" r="10.57"/>
</g>
</svg>
