<?xml version="1.0" encoding="utf-8"?>
<!-- Generator: Adobe Illustrator 15.0.0, SVG Export Plug-In . SVG Version: 6.00 Build 0)  -->
<!DOCTYPE svg PUBLIC "-//W3C//DTD SVG 1.1//EN" "http://www.w3.org/Graphics/SVG/1.1/DTD/svg11.dtd">
<svg version="1.1" id="Layer_1" xmlns="http://www.w3.org/2000/svg" xmlns:xlink="http://www.w3.org/1999/xlink" x="0px" y="0px"
	 width="120px" height="120px" viewBox="0 0 120 120" enable-background="new 0 0 120 120" xml:space="preserve">
<g>
	<g>
		<g>
			<path fill="#DCE7F7" d="M60.833,10.615c-16.23,0-30.632,7.834-39.624,19.926c-0.76,1.022-1.479,2.071-2.155,3.149
				c-2.124,3.366-3.85,7.01-5.115,10.861c-0.592,1.783-1.078,3.608-1.46,5.475c-0.016,0.063-0.025,0.124-0.037,0.188l8.771,4.769
				l-9.639,1.862c-0.065,1.034-0.097,2.076-0.097,3.126c0,5.537,0.913,10.861,2.594,15.828c0.012,0.041,0.024,0.08,0.041,0.117
				c2.851,8.358,7.886,15.711,14.425,21.373c0.003,0.007,0.012,0.017,0.02,0.02c2.928,2.53,6.151,4.725,9.623,6.522h0.004
				c6.784,3.512,14.485,5.494,22.648,5.494c27.257,0,49.352-22.098,49.352-49.354C110.185,32.713,88.09,10.615,60.833,10.615z
				 M20.007,39.766l-0.309-3.012c1.197,4.323,4.053,9.861,10.805,13.002c0.764,3.442,4.287,6.466,4.287,6.466
				c-6.824,2.86-8.774,22.419-8.774,22.419C21.303,60.341,20.007,39.766,20.007,39.766z"/>
		</g>
	</g>
	<path fill="#CC83B3" d="M34.79,51.327c0,0,0,1.911,0,4.895c0,0-3.522-3.024-4.287-6.466c-0.096-0.423-0.149-0.849-0.149-1.279
		l4.435,2.791L34.79,51.327z"/>
	<path fill="#5DA99D" d="M42.974,56.224v32.95H34.79V51.271c0.006,4.079,4.469,4.838,6.798,4.954
		C42.411,56.262,42.974,56.224,42.974,56.224z"/>
	<path fill="#5DA99D" d="M42.974,56.224c0,0-0.563,0.038-1.386,0H42.974z"/>
	<rect x="47.682" y="57.761" fill="#6E64AA" width="8.183" height="31.417"/>
	<rect x="59.975" y="41.849" fill="#C44872" width="8.184" height="47.329"/>
	<rect x="73.318" y="52.417" fill="#92A3C1" width="8.186" height="36.761"/>
	<path fill="#5DA99D" d="M41.588,56.224h1.386C42.974,56.224,42.411,56.262,41.588,56.224z"/>
	<path fill="#5DA99D" d="M42.974,33.773c0,0-1.047,17.497-8.184,17.497V33.773H42.974z"/>
	<path fill="#CC83B3" d="M34.79,56.222v32.956h-5.517c-0.004-0.004-0.004-0.008-0.008-0.012c-2.04-3.455-3.141-9.885-3.241-10.48
		c0-0.013-0.005-0.029-0.008-0.044C26.016,78.642,27.966,59.082,34.79,56.222z"/>
	<path fill="#BD7B55" d="M22.952,26.971v-3.299l1.36-0.848c0,0,0,1.985,0,3.065C24.312,26.971,22.952,26.971,22.952,26.971z"/>
	
		<linearGradient id="SVGID_1_" gradientUnits="userSpaceOnUse" x1="38.5142" y1="3066.0898" x2="39.2505" y2="3101.4397" gradientTransform="matrix(1 0 0 -1 0 3156.9727)">
		<stop  offset="0" style="stop-color:#F1F1F2;stop-opacity:0.64"/>
		<stop  offset="0.1843" style="stop-color:#F3F3F4;stop-opacity:0.5221"/>
		<stop  offset="1" style="stop-color:#F8F8F9;stop-opacity:0"/>
		<stop  offset="1" style="stop-color:#FFFFFF;stop-opacity:0"/>
	</linearGradient>
	<rect x="34.789" y="57.38" fill="url(#SVGID_1_)" width="8.184" height="31.798"/>
	<path fill="#827CB9" d="M55.865,66.912v22.266h-8.183C47.682,89.178,47.682,66.912,55.865,66.912z"/>
	<path fill="#BCC9E6" d="M81.505,52.416v36.762c-8.184,0-8.184-22.556-8.184-22.556V52.416H81.505z"/>
	<path fill="#F8C1C0" d="M59.975,66.822l-0.021-24.973h8.186C68.139,41.849,68.158,66.822,59.975,66.822z"/>
	<path fill="#EED2B9" d="M34.79,30.553v20.715c-0.056-0.011-0.108-0.028-0.16-0.043c-1.517-0.391-2.886-0.889-4.126-1.468
		c-6.751-3.141-9.607-8.679-10.805-13.002c-0.307-1.085-0.503-2.095-0.628-2.972c-0.008-0.034-0.012-0.06-0.016-0.093
		c-0.272-1.898-0.222-3.149-0.222-3.149h2.376L34.79,30.553z"/>
	<path fill="#DBBAA3" d="M18.821,30.539c0,0-0.548,13.439,11.554,19.165c-1.87-10.887,4.415-9.436,4.415-9.436l0.01-9.712
		L18.821,30.539z"/>
	<path fill="#BD7B55" d="M38.688,17.458v-6.724c-4.95,3.673-21.945-0.58-21.945,11.741c0,4.847,0.19,11.296,3.976,11.296
		l-0.037-2.552L38.688,17.458z"/>
	<path fill="#EED2B9" d="M38.688,27.501L36.776,40.27h-1.895c-12.466-1.929-14.162-6.499-14.162-6.499v-3.432
		c-2.891-3.066-0.127-7.89,3.593-6.416l-0.005-4.246c6.867,2.498,11.604-1.664,11.604-1.664s2.721-2.22,2.721-0.557v5.4
		c0,0-0.85,0.206-0.85,1.509C37.781,25.671,38.688,27.501,38.688,27.501z"/>
	<path fill="#A9663F" d="M38.688,10.734v6.724l-0.057,0.045v-0.049c0-1.66-2.719,0.56-2.719,0.56s-4.737,4.161-11.606,1.664
		C24.306,19.678,38.688,16.845,38.688,10.734z"/>
	<linearGradient id="SVGID_2_" gradientUnits="userSpaceOnUse" x1="27.5713" y1="31.8408" x2="28.9189" y2="29.3499">
		<stop  offset="0.0621" style="stop-color:#FFFFFF"/>
		<stop  offset="1" style="stop-color:#FFFFFF;stop-opacity:0"/>
	</linearGradient>
	<path opacity="0.45" fill="url(#SVGID_2_)" d="M22.981,28.002c0,0.607,0.369,3.204,4.227,3.204c3.859,0,7.981,0,7.981,0l0.04-3.204
		C21.748,23.715,22.981,26.887,22.981,28.002z"/>
	<path fill="#DBBAA3" d="M34.79,40.268l-0.002-21.473c0.249-0.047,3.844-3.229,3.844-1.338l-0.056,5.453
		c0,0-0.856,0.171-0.856,1.489c0,1.316,0.913,3.2,0.913,3.2L36.776,40.27L34.79,40.268z"/>
	<path fill="#BD7B55" d="M22.952,27.515v-3.806l1.36-0.978c0,0,0,2.292,0,3.537C24.312,27.515,22.952,27.515,22.952,27.515z"/>
	<rect x="26.808" y="89.178" fill="#CC83B3" width="66.292" height="1.027"/>
	<path fill="#8DCCC0" d="M38.18,103.831c-3.189-1.496-6.482-3.711-9.623-6.522c-0.008-0.003-0.017-0.013-0.02-0.02
		c-5.949-5.321-11.342-12.755-14.425-21.373c-0.017-0.037-0.028-0.076-0.041-0.117c-2.091-5.872-3.105-12.286-2.497-18.954
		l9.639-1.862l-8.771-4.769c0.012-0.064,0.021-0.125,0.037-0.188c0.325-1.863,0.844-3.717,1.46-5.475
		c1.768-5.106,4.294-9.413,5.13-10.768c0.173-0.291,0.273-0.443,0.273-0.443l0.354,3.415l0.309,3.012c0,0,1.295,20.575,6.008,38.875
		c0.003,0.015,0.008,0.031,0.008,0.044c0.941,3.645,2.015,7.199,3.241,10.48c0.004,0.004,0.004,0.008,0.008,0.012
		C31.638,95.495,34.565,100.813,38.18,103.831z"/>
</g>
</svg>
