<?xml version="1.0" encoding="utf-8"?>
<!-- Generator: Adobe Illustrator 16.0.0, SVG Export Plug-In . SVG Version: 6.00 Build 0)  -->
<!DOCTYPE svg PUBLIC "-//W3C//DTD SVG 1.1//EN" "http://www.w3.org/Graphics/SVG/1.1/DTD/svg11.dtd">
<svg version="1.1" id="Layer_1" xmlns="http://www.w3.org/2000/svg" xmlns:xlink="http://www.w3.org/1999/xlink" x="0px" y="0px"
	 width="36px" height="19px" viewBox="0 0 36 19" enable-background="new 0 0 36 19" xml:space="preserve">
<g>
	<path fill-rule="evenodd" clip-rule="evenodd" fill="#1A2B6D" d="M9.571,8.648C9.177,8.812,8.879,8.652,8.677,8.167
		c-0.238-0.57-0.369-1.167-0.394-1.794C8.265,5.926,8.335,5.571,8.494,5.307c0.082-0.135,0.175-0.224,0.28-0.268
		c0.205-0.086,0.361-0.105,0.47-0.056c-0.118-0.136-0.25-0.259-0.395-0.373C8.704,4.5,8.559,4.385,8.414,4.268
		C8.063,3.979,7.818,3.67,7.679,3.338S7.523,2.696,7.626,2.405c0.102-0.29,0.296-0.494,0.581-0.613
		c0.159-0.066,0.326-0.109,0.5-0.128C8.881,1.646,9.02,1.628,9.122,1.609c0.104-0.018,0.221-0.056,0.354-0.111
		c0.133-0.055,0.235-0.106,0.309-0.153C9.858,1.3,9.916,1.257,9.959,1.217c0.044-0.039,0.082-0.073,0.112-0.102
		c0.031-0.028,0.072-0.054,0.123-0.075c0.077-0.032,0.129-0.015,0.156,0.049c0.041,0.099-0.007,0.213-0.146,0.343
		C10.065,1.563,9.907,1.666,9.729,1.74C9.551,1.814,9.411,1.86,9.308,1.878C9.205,1.897,9.053,1.92,8.853,1.949
		C8.651,1.977,8.445,2.035,8.234,2.124C8.022,2.212,7.906,2.379,7.883,2.625C7.866,2.813,7.899,3.009,7.984,3.213
		c0.085,0.203,0.188,0.374,0.308,0.512c0.121,0.139,0.326,0.315,0.613,0.529c0.468,0.343,0.771,0.681,0.911,1.015L9.905,5.57
		L9.91,5.583c0.22,0.525,0.315,1.109,0.286,1.753c-0.018,0.433-0.114,0.776-0.286,1.03C9.822,8.496,9.709,8.59,9.571,8.648
		L9.571,8.648z M9.809,6.569C9.785,6.388,9.754,6.218,9.717,6.062C9.681,5.905,9.631,5.753,9.57,5.606
		c-0.061-0.147-0.145-0.239-0.25-0.278C9.213,5.289,9.104,5.293,8.992,5.34C8.88,5.386,8.8,5.458,8.749,5.557
		C8.7,5.655,8.658,5.809,8.623,6.018c-0.034,0.211-0.03,0.499,0.014,0.865c0.044,0.366,0.114,0.665,0.21,0.896
		c0.096,0.229,0.174,0.376,0.232,0.441c0.117,0.126,0.234,0.164,0.354,0.114c0.12-0.05,0.209-0.135,0.268-0.255
		c0.06-0.12,0.101-0.262,0.125-0.425c0.024-0.162,0.033-0.338,0.029-0.528C9.848,6.937,9.833,6.75,9.809,6.569L9.809,6.569z
		 M11.865,7.635c-0.327,0.104-0.556-0.052-0.688-0.466c-0.165-0.514-0.234-1.083-0.211-1.708c0.009-0.243,0.01-0.444,0.007-0.603
		C10.971,4.7,10.95,4.538,10.911,4.372c-0.002-0.047,0.012-0.093,0.039-0.137c0.028-0.045,0.061-0.073,0.1-0.085
		c0.054-0.018,0.104,0.008,0.15,0.076c0.047,0.216,0.074,0.437,0.079,0.665c0.004,0.227,0.006,0.457,0.004,0.688
		c0,0.595,0.052,1.059,0.158,1.389c0.058,0.179,0.136,0.295,0.234,0.35c0.04,0.021,0.1,0.018,0.18-0.008
		c0.08-0.026,0.16-0.089,0.24-0.193c0.08-0.103,0.14-0.222,0.181-0.356c0.092-0.293,0.093-0.577,0.006-0.852
		c-0.021-0.066-0.049-0.127-0.083-0.181c-0.325,0.036-0.509-0.018-0.554-0.158c-0.026-0.082-0.008-0.165,0.055-0.247
		c0.063-0.081,0.128-0.134,0.194-0.155c0.136-0.043,0.286,0.033,0.448,0.229c0.084-0.006,0.178-0.025,0.282-0.059
		c0.268-0.085,0.487-0.229,0.657-0.43s0.287-0.434,0.35-0.699c0.002-0.068,0-0.151-0.005-0.252c-0.022-0.388,0.041-0.606,0.19-0.653
		c0.08-0.025,0.137,0.017,0.172,0.126c0.008,0.3-0.015,0.578-0.069,0.833c-0.022,0.906,0.036,1.577,0.176,2.015
		c0.076,0.238,0.146,0.347,0.208,0.327c0.062-0.02,0.112-0.058,0.149-0.113c0.037-0.057,0.072-0.116,0.103-0.178
		c0.031-0.063,0.061-0.121,0.091-0.175c0.031-0.053,0.065-0.086,0.105-0.099c0.082-0.026,0.135-0.002,0.158,0.071
		c0.014,0.045,0.011,0.095-0.009,0.149c-0.045,0.077-0.084,0.149-0.119,0.219c-0.035,0.07-0.083,0.149-0.143,0.242
		c-0.06,0.091-0.158,0.159-0.295,0.203c-0.137,0.044-0.245,0.029-0.322-0.045c-0.077-0.074-0.15-0.216-0.217-0.426
		c-0.113-0.354-0.173-0.845-0.179-1.475c-0.202,0.3-0.477,0.506-0.824,0.617c-0.086,0.028-0.181,0.053-0.283,0.076l0.069,0.146
		c0.104,0.324,0.085,0.684-0.057,1.079C12.389,7.292,12.168,7.539,11.865,7.635L11.865,7.635z M15.585,5.556
		c0.104,0.4,0.301,0.562,0.592,0.487c0.145-0.038,0.263-0.143,0.355-0.316c0.034-0.068,0.066-0.129,0.097-0.184
		s0.067-0.088,0.111-0.1c0.087-0.022,0.141,0.006,0.161,0.082c0.036,0.141-0.017,0.306-0.16,0.496
		c-0.143,0.19-0.328,0.315-0.556,0.374c-0.227,0.059-0.421,0.02-0.583-0.119c-0.16-0.137-0.268-0.312-0.322-0.522
		c-0.102-0.394-0.133-0.82-0.096-1.279c0.036-0.459,0.137-0.862,0.302-1.209c0.165-0.346,0.38-0.554,0.647-0.623
		c0.192-0.05,0.338-0.014,0.435,0.108c0.025,0.033,0.056,0.077,0.092,0.13c0.035,0.052,0.068,0.083,0.1,0.092
		c0.024,0.024,0.042,0.056,0.052,0.097c0.011,0.04,0.003,0.083-0.027,0.128c-0.028,0.044-0.065,0.073-0.111,0.085
		c-0.094,0.024-0.173-0.03-0.235-0.163c-0.062-0.133-0.154-0.183-0.274-0.152c-0.169,0.044-0.311,0.217-0.427,0.521
		c-0.115,0.303-0.186,0.655-0.217,1.053C15.493,4.941,15.514,5.279,15.585,5.556L15.585,5.556z M18.236,5.887
		c-0.077,0.019-0.127-0.018-0.148-0.108c-0.011-0.049-0.006-0.095,0.017-0.141c0.016-0.108,0.023-0.265,0.021-0.47
		c-0.001-0.205-0.001-0.355,0.002-0.451c0.002-0.096-0.001-0.217-0.012-0.361l-0.03-0.455c-0.026-0.415-0.032-0.7-0.02-0.854
		c0.029-0.312,0.108-0.483,0.236-0.513c0.046-0.011,0.089,0.01,0.129,0.063l0.145,0.21c0.023,0.097,0.006,0.177-0.048,0.239
		c-0.021,0.018-0.043,0.03-0.071,0.037C18.43,3.09,18.403,3.082,18.378,3.06c-0.01,0.433-0.008,0.729,0.006,0.887
		c0.032,0.363,0.046,0.599,0.042,0.707c-0.004,0.108-0.007,0.262-0.011,0.463C18.404,5.605,18.345,5.861,18.236,5.887L18.236,5.887z
		 M18.404,2.324c0.183-0.043,0.37-0.067,0.558-0.071c0.189-0.004,0.321-0.015,0.398-0.033c0.075-0.018,0.13-0.051,0.162-0.102
		c0.032-0.05,0.045-0.093,0.036-0.13c-0.009-0.038-0.025-0.067-0.051-0.086c-0.024-0.021-0.083-0.023-0.18-0.01
		c-0.096,0.013-0.233,0.03-0.413,0.049C18.735,1.963,18.532,2,18.304,2.054c-0.57,0.134-1.026,0.328-1.365,0.58
		c-0.027,0.028-0.035,0.058-0.027,0.092c0.008,0.034,0.034,0.064,0.079,0.087c0.046,0.022,0.096,0.027,0.151,0.014l0.026-0.006
		c0.009-0.002,0.019-0.006,0.028-0.013C17.543,2.592,17.946,2.432,18.404,2.324L18.404,2.324z M20.434,2.623
		c0.188-0.691,0.472-1.077,0.849-1.159c0.197-0.043,0.352-0.016,0.463,0.082c0.112,0.097,0.192,0.26,0.242,0.488
		c0.091,0.418,0.124,0.859,0.1,1.321c-0.025,0.462-0.123,0.871-0.294,1.227c-0.172,0.357-0.421,0.57-0.744,0.641
		c-0.123,0.027-0.229,0.022-0.316-0.014c-0.087-0.037-0.168-0.114-0.242-0.23c0,0.54,0.003,1.074,0.015,1.604
		c0.01,0.532,0.004,1.015-0.014,1.451c-0.024,0.101-0.078,0.16-0.16,0.177c-0.068,0.015-0.117-0.021-0.146-0.11
		c0.021-0.606,0.026-1.15,0.015-1.632c-0.013-0.484-0.021-0.854-0.028-1.112s-0.018-0.629-0.03-1.113
		c-0.014-0.483-0.031-1.24-0.051-2.271l-0.033-0.149c-0.009-0.045,0.002-0.092,0.034-0.142c0.031-0.05,0.075-0.081,0.129-0.093
		c0.055-0.012,0.1,0.001,0.135,0.038c0.034,0.037,0.056,0.075,0.063,0.113c0.009,0.039,0.014,0.075,0.014,0.106
		c0,0.032-0.002,0.064-0.004,0.097c-0.002,0.032-0.004,0.063-0.007,0.093c-0.003,0.032-0.003,0.058,0,0.081L20.434,2.623
		L20.434,2.623z M20.526,4.452c0.075,0.348,0.242,0.494,0.499,0.438c0.239-0.052,0.426-0.249,0.561-0.589
		c0.173-0.437,0.23-0.98,0.175-1.633c-0.015-0.18-0.038-0.351-0.074-0.513c-0.063-0.292-0.168-0.423-0.313-0.392
		c-0.144,0.032-0.287,0.174-0.432,0.426c-0.202,0.353-0.337,0.748-0.405,1.186C20.468,3.811,20.465,4.171,20.526,4.452L20.526,4.452
		z M23.246,4.661c-0.26,0.053-0.423-0.084-0.49-0.411c-0.066-0.326-0.026-0.751,0.119-1.275c0.146-0.524,0.351-0.993,0.608-1.406
		c0.258-0.413,0.492-0.639,0.699-0.682c0.208-0.042,0.345,0.024,0.41,0.201c0.021,0.054,0.039,0.111,0.057,0.172
		c0.018-0.018,0.04-0.03,0.068-0.036c0.104-0.021,0.168,0.018,0.188,0.118l0.005,0.027c0.002,0.007-0.006,0.112-0.022,0.316
		c-0.016,0.205-0.014,0.541,0.008,1.006c0.021,0.466,0.063,0.858,0.129,1.179c0.023,0.008,0.049,0.02,0.08,0.03
		c0.029,0.012,0.067,0.03,0.116,0.057c0.046,0.026,0.073,0.062,0.084,0.11c0.009,0.046,0.004,0.09-0.019,0.133
		c-0.021,0.043-0.058,0.07-0.111,0.081c-0.109,0.022-0.219-0.014-0.329-0.107c-0.111-0.092-0.179-0.204-0.205-0.333
		c-0.057-0.278-0.079-0.771-0.066-1.48c-0.108,0.435-0.274,0.866-0.499,1.293c-0.226,0.428-0.387,0.695-0.484,0.804
		C23.495,4.566,23.38,4.633,23.246,4.661L23.246,4.661z M23.1,4.194c0.016,0.082,0.059,0.116,0.127,0.102
		c0.049-0.01,0.087-0.034,0.114-0.074c0.379-0.49,0.679-1.122,0.901-1.896c0.124-0.442,0.188-0.695,0.188-0.757
		c0-0.063-0.005-0.115-0.014-0.157s-0.027-0.08-0.058-0.114c-0.029-0.033-0.064-0.044-0.104-0.037
		c-0.04,0.008-0.095,0.041-0.164,0.099c-0.152,0.128-0.322,0.37-0.509,0.726c-0.188,0.354-0.329,0.728-0.424,1.121
		C23.063,3.598,23.045,3.928,23.1,4.194L23.1,4.194z M27.768,0.397c0.064-0.012,0.111,0.02,0.14,0.095
		c0.041,0.221,0.011,0.469-0.088,0.742c-0.022,0.063-0.044,0.102-0.064,0.117c0.001,0.27,0.001,0.506-0.003,0.708
		c-0.004,0.203-0.009,0.444-0.014,0.724c-0.004,0.281,0.002,0.498,0.019,0.654s0.02,0.248,0.012,0.274
		c-0.02,0.071-0.066,0.112-0.14,0.126c-0.072,0.014-0.118,0.006-0.133-0.027c-0.015-0.031-0.026-0.066-0.033-0.104
		c-0.039-0.496-0.044-1.12-0.016-1.87c-0.217,0.37-0.398,0.71-0.542,1.021c-0.144,0.31-0.248,0.531-0.311,0.661
		c-0.063,0.131-0.128,0.243-0.19,0.336c-0.13,0.187-0.287,0.299-0.475,0.334c-0.188,0.035-0.34,0.012-0.459-0.067
		c-0.039-0.026-0.063-0.061-0.071-0.106s0.003-0.091,0.035-0.136c0.031-0.045,0.072-0.073,0.119-0.081
		c0.048-0.009,0.087,0,0.118,0.027c0.03,0.029,0.059,0.046,0.084,0.053c0.025,0.006,0.075,0.002,0.15-0.011
		c0.074-0.014,0.145-0.051,0.209-0.11c0.065-0.06,0.13-0.141,0.192-0.244c0.062-0.103,0.129-0.226,0.199-0.37
		c0.069-0.146,0.133-0.271,0.187-0.38c0.056-0.108,0.102-0.193,0.137-0.257s0.072-0.13,0.112-0.203
		c0.039-0.072,0.079-0.14,0.117-0.204c0.037-0.063,0.063-0.11,0.078-0.141c-0.191,0.258-0.37,0.402-0.536,0.433
		c-0.104,0.02-0.197,0.001-0.279-0.054c-0.082-0.054-0.137-0.159-0.165-0.31c-0.028-0.152,0-0.371,0.082-0.658
		c0.083-0.286,0.209-0.542,0.376-0.767c0.169-0.225,0.344-0.355,0.525-0.389s0.332,0.002,0.454,0.109
		c0.034,0.03,0.066,0.063,0.099,0.099C27.714,0.412,27.739,0.402,27.768,0.397L27.768,0.397z M27.455,1.264
		c0.012-0.237,0.032-0.416,0.062-0.537c-0.084-0.1-0.147-0.156-0.188-0.169c-0.04-0.013-0.088-0.014-0.14-0.004
		c-0.121,0.022-0.247,0.117-0.375,0.282c-0.131,0.166-0.228,0.354-0.293,0.563c-0.064,0.209-0.086,0.374-0.063,0.494
		c0.034,0.185,0.104,0.268,0.209,0.248c0.196-0.037,0.411-0.247,0.645-0.631C27.366,1.416,27.415,1.334,27.455,1.264z"/>
	
		<path fill-rule="evenodd" clip-rule="evenodd" fill="none" stroke="#1A2B6D" stroke-width="0.2401" stroke-linecap="round" stroke-linejoin="round" stroke-miterlimit="22.9256" d="
		M0.561,18.348c5.657-3.634,9.348-8.281,18.713-11.148 M21.063,6.692c1.19-0.312,2.468-0.596,3.842-0.848"/>
	
		<path fill-rule="evenodd" clip-rule="evenodd" fill="none" stroke="#1A2B6D" stroke-width="0.2401" stroke-linecap="round" stroke-linejoin="round" stroke-miterlimit="22.9256" d="
		M1.338,16.282c-0.543,0.881-0.802,1.569-0.778,2.065c0.775,0.296,1.76,0.327,2.955,0.096"/>
	<path fill-rule="evenodd" clip-rule="evenodd" fill="#1A2B6D" d="M13.721,14.003c0.087-0.525,0.268-0.832,0.54-0.922
		c0.143-0.046,0.259-0.038,0.349,0.026c0.09,0.063,0.162,0.178,0.216,0.343c0.099,0.303,0.157,0.627,0.173,0.97
		c0.016,0.344-0.025,0.653-0.125,0.93c-0.1,0.276-0.268,0.453-0.501,0.529c-0.09,0.029-0.168,0.034-0.236,0.014
		c-0.067-0.021-0.132-0.071-0.196-0.152c0.04,0.399,0.083,0.794,0.131,1.186c0.047,0.393,0.08,0.75,0.099,1.073
		c-0.01,0.076-0.045,0.124-0.104,0.144c-0.05,0.017-0.089-0.008-0.117-0.071c-0.03-0.449-0.067-0.853-0.112-1.208
		c-0.046-0.356-0.081-0.63-0.105-0.82c-0.024-0.191-0.06-0.464-0.105-0.821c-0.046-0.356-0.116-0.914-0.209-1.676l-0.035-0.108
		c-0.011-0.031-0.006-0.067,0.014-0.106c0.02-0.04,0.05-0.065,0.089-0.078c0.04-0.014,0.073-0.007,0.102,0.017
		c0.028,0.024,0.046,0.052,0.056,0.079c0.009,0.028,0.016,0.055,0.018,0.078c0.002,0.023,0.004,0.048,0.005,0.072
		c0,0.023,0.001,0.046,0.001,0.069s0.002,0.043,0.006,0.06L13.721,14.003L13.721,14.003z M13.926,15.349
		c0.082,0.252,0.217,0.347,0.403,0.287c0.173-0.058,0.296-0.216,0.37-0.479c0.094-0.336,0.096-0.742,0.006-1.221
		c-0.024-0.132-0.055-0.257-0.093-0.374c-0.069-0.212-0.156-0.301-0.26-0.267c-0.104,0.034-0.2,0.15-0.288,0.348
		c-0.122,0.276-0.193,0.578-0.21,0.907C13.835,14.879,13.86,15.146,13.926,15.349L13.926,15.349z M16.688,14.573
		c0.055-0.02,0.093,0,0.114,0.059c0.024,0.068-0.032,0.175-0.17,0.318c-0.138,0.146-0.262,0.236-0.373,0.275
		c-0.112,0.039-0.201,0.049-0.271,0.032c-0.068-0.018-0.131-0.053-0.189-0.105c-0.113-0.104-0.201-0.245-0.264-0.426
		c-0.11-0.318-0.167-0.636-0.169-0.95c-0.002-0.315,0.043-0.594,0.139-0.834c0.094-0.241,0.234-0.394,0.419-0.457
		c0.099-0.035,0.19-0.021,0.275,0.041c0.086,0.063,0.147,0.149,0.186,0.261c0.073,0.209,0.08,0.404,0.022,0.588
		c-0.059,0.183-0.152,0.348-0.279,0.495c-0.127,0.148-0.28,0.3-0.458,0.454l0.112,0.354c0.095,0.273,0.226,0.382,0.392,0.324
		c0.089-0.03,0.174-0.089,0.253-0.175c0.08-0.086,0.138-0.147,0.173-0.187C16.633,14.604,16.663,14.581,16.688,14.573L16.688,14.573
		z M16.164,12.875c-0.044-0.127-0.12-0.172-0.227-0.136c-0.096,0.034-0.178,0.158-0.248,0.375c-0.07,0.218-0.098,0.48-0.083,0.792
		c0.002,0.076,0.009,0.132,0.018,0.169c0.051-0.058,0.105-0.114,0.16-0.17c0.056-0.055,0.11-0.11,0.161-0.168
		c0.119-0.132,0.199-0.267,0.242-0.403C16.231,13.196,16.222,13.044,16.164,12.875L16.164,12.875z M17.203,11.951
		c-0.141,0.051-0.265,0.157-0.37,0.32c-0.105,0.163-0.135,0.306-0.091,0.427c0.022,0.061,0.065,0.079,0.13,0.056
		c0.021-0.008,0.042-0.032,0.061-0.07c0.018-0.039,0.022-0.074,0.014-0.107c-0.009-0.032,0.013-0.096,0.067-0.188
		c0.064-0.1,0.128-0.162,0.195-0.187c0.066-0.023,0.123-0.011,0.17,0.038c0.04,0.174,0.024,0.402-0.045,0.684
		c-0.03,0.121-0.063,0.245-0.101,0.369c-0.038,0.123-0.069,0.247-0.094,0.369c-0.024,0.123-0.038,0.243-0.04,0.362
		c-0.002,0.117,0.018,0.234,0.059,0.349c0.041,0.113,0.118,0.204,0.229,0.27c0.112,0.066,0.245,0.071,0.4,0.016
		c0.154-0.056,0.29-0.181,0.406-0.376c0.045-0.077,0.104-0.207,0.176-0.391c0.014-0.039,0.016-0.077,0.003-0.111
		c-0.02-0.055-0.058-0.071-0.114-0.051s-0.122,0.11-0.196,0.269c-0.074,0.158-0.144,0.272-0.208,0.341
		c-0.035,0.037-0.083,0.067-0.145,0.09s-0.127,0.02-0.195-0.008c-0.069-0.029-0.125-0.104-0.169-0.226
		c-0.057-0.159-0.01-0.487,0.142-0.985c0.152-0.497,0.194-0.838,0.128-1.02C17.532,11.961,17.395,11.882,17.203,11.951
		L17.203,11.951z M19.771,11.134c0.055-0.021,0.092-0.001,0.112,0.055c0.021,0.057,0.037,0.18,0.049,0.373
		c0.013,0.192,0.022,0.324,0.033,0.397c0.009,0.073,0.023,0.165,0.042,0.276c0.019,0.11,0.038,0.223,0.059,0.338
		c0.021,0.114,0.043,0.236,0.067,0.366c0.023,0.13,0.048,0.274,0.074,0.437c0.021,0.059,0.046,0.096,0.074,0.113
		c0.029,0.018,0.052,0.03,0.063,0.037c0.014,0.008,0.027,0.027,0.039,0.061c0.013,0.032,0.005,0.069-0.022,0.11
		s-0.06,0.068-0.1,0.084c-0.04,0.015-0.09-0.001-0.15-0.048c-0.06-0.047-0.098-0.092-0.114-0.135l-0.03-0.083
		c-0.03-0.08-0.056-0.238-0.079-0.474s-0.04-0.405-0.05-0.51c-0.011-0.104-0.021-0.203-0.036-0.293
		c-0.01,0.096-0.018,0.203-0.024,0.325c-0.008,0.123-0.021,0.297-0.039,0.523c-0.051,0.601-0.212,0.952-0.484,1.053
		c-0.164,0.061-0.308,0.013-0.432-0.146c-0.035-0.047-0.069-0.115-0.103-0.206c-0.034-0.091-0.063-0.202-0.093-0.335
		c-0.026-0.134-0.048-0.266-0.064-0.4c-0.016-0.133-0.028-0.264-0.037-0.395c-0.008-0.13-0.019-0.289-0.031-0.479
		c-0.014-0.19-0.035-0.333-0.064-0.429c-0.002-0.035,0.006-0.069,0.026-0.103c0.019-0.033,0.044-0.055,0.075-0.066
		c0.032-0.012,0.073,0.021,0.127,0.097c0.04,0.109,0.065,0.255,0.077,0.436c0.011,0.181,0.019,0.331,0.023,0.451
		c0.019,0.461,0.087,0.848,0.202,1.16c0.036,0.097,0.099,0.15,0.189,0.162c0.031,0.003,0.068-0.004,0.112-0.02
		c0.089-0.033,0.164-0.164,0.224-0.393c0.059-0.229,0.101-0.494,0.125-0.795s0.035-0.556,0.031-0.766
		c-0.003-0.209-0.002-0.355,0.003-0.438C19.661,11.274,19.704,11.159,19.771,11.134L19.771,11.134z M21.035,12.743
		c0.107,0.288,0.265,0.393,0.475,0.314c0.104-0.038,0.184-0.124,0.239-0.26c0.02-0.053,0.039-0.101,0.058-0.143
		c0.019-0.043,0.043-0.07,0.074-0.082c0.063-0.023,0.105-0.007,0.126,0.048c0.037,0.102,0.011,0.228-0.081,0.379
		s-0.219,0.258-0.383,0.318s-0.311,0.046-0.439-0.044s-0.222-0.21-0.278-0.361c-0.104-0.284-0.16-0.597-0.167-0.939
		c-0.008-0.343,0.037-0.648,0.133-0.918c0.096-0.268,0.239-0.438,0.432-0.509c0.138-0.051,0.249-0.035,0.329,0.048
		c0.021,0.022,0.047,0.053,0.078,0.089c0.029,0.036,0.057,0.057,0.08,0.061c0.02,0.016,0.036,0.038,0.047,0.067
		s0.007,0.062-0.011,0.098c-0.018,0.034-0.043,0.059-0.076,0.07c-0.068,0.025-0.13-0.009-0.186-0.103
		c-0.056-0.093-0.128-0.124-0.215-0.092c-0.122,0.045-0.214,0.184-0.276,0.418c-0.063,0.232-0.089,0.498-0.08,0.795
		C20.921,12.296,20.962,12.544,21.035,12.743L21.035,12.743z M23.023,12.791c-0.055,0.02-0.096-0.002-0.119-0.067
		c-0.013-0.035-0.013-0.07,0.001-0.105c0.003-0.081-0.006-0.197-0.024-0.349s-0.031-0.262-0.037-0.334
		c-0.006-0.07-0.02-0.159-0.04-0.266l-0.061-0.333c-0.055-0.304-0.084-0.514-0.088-0.629c-0.005-0.233,0.038-0.366,0.13-0.399
		c0.033-0.012,0.067,0,0.102,0.036l0.125,0.143c0.025,0.07,0.02,0.131-0.016,0.181c-0.013,0.015-0.029,0.026-0.049,0.033
		c-0.02,0.008-0.04,0.004-0.061-0.01c0.029,0.321,0.056,0.539,0.08,0.654c0.055,0.266,0.085,0.438,0.092,0.519
		c0.006,0.08,0.017,0.193,0.031,0.343C23.123,12.568,23.102,12.763,23.023,12.791L23.023,12.791z M22.842,10.146
		c0.132-0.047,0.268-0.081,0.406-0.1c0.14-0.02,0.236-0.039,0.292-0.059c0.054-0.02,0.091-0.049,0.111-0.089
		c0.02-0.04,0.024-0.072,0.015-0.099c-0.01-0.027-0.024-0.047-0.044-0.059c-0.021-0.013-0.064-0.01-0.134,0.008
		c-0.07,0.018-0.171,0.042-0.301,0.072c-0.131,0.031-0.278,0.076-0.441,0.135c-0.41,0.148-0.73,0.33-0.959,0.545
		c-0.018,0.023-0.021,0.046-0.013,0.071s0.031,0.044,0.066,0.057s0.073,0.013,0.112-0.002l0.02-0.007
		c0.006-0.003,0.013-0.006,0.019-0.012C22.23,10.417,22.514,10.265,22.842,10.146L22.842,10.146z M24.364,10.197
		c0.079-0.527,0.255-0.836,0.526-0.93c0.141-0.049,0.258-0.042,0.349,0.021c0.091,0.062,0.165,0.175,0.222,0.339
		c0.104,0.301,0.166,0.624,0.188,0.967c0.021,0.343-0.016,0.653-0.111,0.931c-0.096,0.279-0.261,0.458-0.493,0.538
		c-0.089,0.031-0.167,0.037-0.235,0.018c-0.067-0.021-0.134-0.069-0.198-0.149c0.047,0.398,0.096,0.792,0.149,1.183
		c0.054,0.392,0.092,0.75,0.116,1.072c-0.009,0.076-0.043,0.125-0.103,0.146c-0.049,0.017-0.088-0.007-0.117-0.069
		c-0.037-0.45-0.08-0.852-0.132-1.206c-0.052-0.356-0.09-0.629-0.118-0.819c-0.026-0.19-0.066-0.463-0.118-0.819
		c-0.053-0.355-0.131-0.912-0.235-1.672l-0.037-0.108c-0.011-0.032-0.007-0.068,0.013-0.107c0.019-0.039,0.048-0.066,0.087-0.08
		c0.04-0.013,0.073-0.007,0.103,0.016c0.028,0.024,0.048,0.05,0.058,0.078c0.009,0.027,0.016,0.054,0.019,0.077
		c0.003,0.024,0.005,0.048,0.006,0.072c0.001,0.023,0.002,0.046,0.003,0.069c0.001,0.023,0.003,0.043,0.007,0.06L24.364,10.197
		L24.364,10.197z M24.592,11.539c0.086,0.251,0.222,0.344,0.406,0.28c0.173-0.06,0.293-0.221,0.363-0.484
		c0.089-0.337,0.084-0.743-0.013-1.221c-0.026-0.131-0.06-0.255-0.1-0.372c-0.072-0.21-0.161-0.298-0.265-0.263
		c-0.104,0.036-0.197,0.153-0.282,0.353c-0.118,0.278-0.184,0.581-0.196,0.911C24.493,11.071,24.521,11.337,24.592,11.539
		L24.592,11.539z M26.62,11.462c-0.189,0.058-0.319-0.033-0.391-0.271s-0.069-0.556,0.003-0.953
		c0.073-0.398,0.192-0.758,0.355-1.081c0.164-0.323,0.321-0.507,0.472-0.552c0.151-0.046,0.258-0.005,0.317,0.121
		c0.02,0.039,0.037,0.079,0.054,0.124c0.012-0.014,0.027-0.024,0.049-0.03c0.076-0.023,0.125,0.002,0.146,0.075l0.006,0.02
		c0.002,0.005,0.003,0.083,0.005,0.236c0.002,0.153,0.026,0.401,0.073,0.744c0.046,0.344,0.104,0.631,0.175,0.865
		c0.018,0.004,0.037,0.011,0.061,0.017c0.023,0.007,0.052,0.018,0.09,0.034c0.037,0.017,0.06,0.041,0.069,0.076
		c0.011,0.033,0.009,0.066-0.004,0.099c-0.013,0.034-0.039,0.056-0.077,0.067c-0.079,0.024-0.163,0.005-0.251-0.057
		c-0.089-0.061-0.146-0.14-0.174-0.233c-0.061-0.201-0.11-0.565-0.148-1.09c-0.051,0.329-0.146,0.659-0.283,0.991
		c-0.139,0.331-0.24,0.541-0.305,0.628C26.798,11.376,26.717,11.434,26.62,11.462L26.62,11.462z M26.48,11.127
		c0.018,0.06,0.051,0.082,0.101,0.067c0.036-0.011,0.063-0.031,0.08-0.063c0.247-0.388,0.427-0.876,0.54-1.464
		c0.063-0.335,0.092-0.527,0.088-0.572c-0.005-0.047-0.012-0.085-0.021-0.116c-0.01-0.031-0.025-0.057-0.051-0.08
		c-0.023-0.023-0.051-0.029-0.08-0.021c-0.028,0.009-0.067,0.036-0.114,0.084c-0.104,0.105-0.214,0.296-0.328,0.572
		c-0.116,0.275-0.195,0.562-0.238,0.858C26.414,10.688,26.422,10.934,26.48,11.127L26.48,11.127z M29.944,10.609
		c-0.067,0.016-0.108-0.008-0.123-0.07c-0.004-0.019-0.005-0.043-0.001-0.074c0.003-0.031,0.006-0.088,0.01-0.172
		c0.004-0.082,0.006-0.174,0.009-0.273c0.002-0.1,0.005-0.206,0.007-0.316c0.002-0.11,0.005-0.215,0.007-0.315
		c0.002-0.1,0.004-0.19,0.005-0.27c0.003-0.08,0.005-0.142,0.006-0.185c-0.073,0.498-0.184,0.924-0.334,1.281
		c-0.149,0.357-0.3,0.553-0.449,0.587c-0.111,0.026-0.213,0.009-0.302-0.049c-0.09-0.058-0.151-0.161-0.185-0.306
		c-0.016-0.068-0.023-0.159-0.023-0.271c0-0.113-0.001-0.228-0.004-0.342c-0.003-0.115-0.006-0.274-0.011-0.479
		c-0.003-0.205-0.003-0.368,0-0.489c0.004-0.122,0.003-0.216-0.004-0.283c-0.006-0.068-0.008-0.129-0.007-0.186
		c0-0.121,0.03-0.188,0.091-0.202c0.074-0.017,0.12,0.015,0.139,0.096c0.019,0.08,0.032,0.214,0.04,0.401
		c0.008,0.188,0.012,0.496,0.009,0.922c-0.002,0.427,0.005,0.679,0.022,0.754c0.031,0.138,0.106,0.194,0.225,0.167
		c0.276-0.063,0.512-0.807,0.706-2.232c0.023-0.169,0.047-0.279,0.069-0.331c0.023-0.05,0.055-0.081,0.096-0.09
		c0.081-0.018,0.129,0.008,0.146,0.079c0.01,0.046,0.011,0.101-0.001,0.166c-0.042,0.264-0.046,0.688-0.012,1.271
		c0.013,0.224,0.018,0.459,0.014,0.708c0.128-0.149,0.218-0.263,0.266-0.342c0.048-0.08,0.076-0.126,0.086-0.141
		c0.009-0.014,0.022-0.023,0.043-0.028c0.045-0.01,0.079,0.012,0.105,0.066c0.083,0.393,0.095,0.762,0.038,1.108
		c-0.092,0.545-0.305,0.855-0.641,0.933c-0.242,0.056-0.468-0.064-0.676-0.359c-0.008-0.012-0.015-0.032-0.021-0.06
		c-0.007-0.028-0.002-0.061,0.016-0.098s0.044-0.06,0.078-0.067s0.067,0.004,0.1,0.035c0.167,0.241,0.329,0.345,0.485,0.31
		c0.282-0.064,0.437-0.372,0.464-0.921c0.01-0.193-0.002-0.367-0.034-0.522c-0.042,0.057-0.085,0.118-0.128,0.186
		c-0.043,0.066-0.097,0.148-0.163,0.246C30.041,10.546,29.986,10.6,29.944,10.609L29.944,10.609z M32.78,7.559
		c0.059-0.004,0.089,0.023,0.094,0.083c0.005,0.06-0.014,0.184-0.055,0.372c-0.041,0.189-0.066,0.319-0.076,0.392
		c-0.012,0.073-0.021,0.165-0.035,0.277c-0.012,0.112-0.023,0.225-0.035,0.341c-0.011,0.116-0.022,0.239-0.034,0.371
		c-0.014,0.131-0.029,0.278-0.048,0.44c0.005,0.063,0.019,0.105,0.041,0.129c0.024,0.025,0.041,0.043,0.052,0.053
		c0.011,0.011,0.018,0.034,0.021,0.069c0.003,0.034-0.015,0.067-0.052,0.1c-0.037,0.032-0.076,0.05-0.118,0.053
		c-0.043,0.003-0.087-0.025-0.132-0.086c-0.045-0.062-0.07-0.115-0.073-0.161l-0.007-0.089c-0.007-0.085,0.011-0.244,0.052-0.477
		c0.042-0.233,0.072-0.4,0.091-0.504c0.02-0.103,0.034-0.201,0.046-0.292c-0.036,0.089-0.072,0.191-0.112,0.307
		c-0.041,0.116-0.101,0.28-0.18,0.493c-0.213,0.564-0.463,0.858-0.752,0.881c-0.175,0.014-0.301-0.072-0.376-0.257
		c-0.021-0.055-0.036-0.13-0.044-0.227c-0.008-0.097-0.006-0.212,0.003-0.348c0.011-0.135,0.025-0.269,0.047-0.402
		c0.021-0.132,0.044-0.263,0.071-0.39c0.026-0.127,0.061-0.284,0.101-0.471c0.038-0.186,0.057-0.33,0.054-0.429
		c0.008-0.035,0.025-0.065,0.053-0.092c0.027-0.026,0.058-0.041,0.09-0.043c0.034-0.003,0.064,0.039,0.096,0.127
		c0.009,0.116-0.006,0.263-0.044,0.44c-0.039,0.177-0.072,0.324-0.101,0.441C31.31,9.11,31.27,9.5,31.296,9.833
		c0.008,0.103,0.055,0.172,0.139,0.207c0.029,0.011,0.066,0.015,0.112,0.012c0.096-0.007,0.203-0.113,0.322-0.317
		s0.231-0.448,0.338-0.731c0.104-0.282,0.184-0.525,0.237-0.728c0.053-0.202,0.094-0.343,0.121-0.421
		C32.637,7.664,32.708,7.564,32.78,7.559L32.78,7.559z M35.36,7.831c0.049,0.004,0.075,0.036,0.08,0.096
		c-0.015,0.167-0.086,0.338-0.212,0.514c-0.029,0.04-0.052,0.064-0.07,0.07c-0.053,0.194-0.102,0.363-0.145,0.506
		c-0.044,0.144-0.096,0.316-0.155,0.515c-0.06,0.2-0.1,0.357-0.119,0.472s-0.036,0.181-0.047,0.198
		c-0.029,0.047-0.07,0.068-0.126,0.063c-0.055-0.005-0.085-0.02-0.089-0.046c-0.005-0.025-0.006-0.052-0.003-0.081
		c0.072-0.363,0.194-0.811,0.365-1.341c-0.229,0.221-0.428,0.428-0.594,0.621c-0.165,0.193-0.284,0.331-0.355,0.411
		c-0.071,0.081-0.141,0.147-0.204,0.202c-0.13,0.108-0.266,0.156-0.406,0.143c-0.142-0.013-0.246-0.06-0.314-0.141
		c-0.023-0.026-0.034-0.056-0.03-0.09c0.003-0.035,0.021-0.065,0.052-0.091c0.032-0.026,0.067-0.037,0.103-0.034
		c0.036,0.003,0.063,0.018,0.079,0.044c0.016,0.026,0.032,0.044,0.05,0.055c0.017,0.009,0.053,0.017,0.109,0.022
		c0.057,0.005,0.113-0.007,0.172-0.037c0.059-0.029,0.121-0.074,0.187-0.135s0.138-0.136,0.218-0.225
		c0.079-0.09,0.148-0.167,0.21-0.234s0.111-0.118,0.149-0.156c0.038-0.039,0.078-0.079,0.121-0.123
		c0.043-0.044,0.085-0.084,0.125-0.122c0.039-0.038,0.067-0.066,0.085-0.085c-0.189,0.146-0.347,0.212-0.471,0.202
		c-0.078-0.007-0.143-0.04-0.189-0.096c-0.048-0.055-0.066-0.141-0.056-0.254c0.011-0.114,0.074-0.266,0.191-0.454
		c0.117-0.188,0.259-0.346,0.424-0.473c0.166-0.127,0.317-0.185,0.454-0.172c0.137,0.013,0.237,0.069,0.303,0.17
		c0.019,0.029,0.034,0.059,0.051,0.09C35.318,7.83,35.339,7.829,35.36,7.831L35.36,7.831z M34.961,8.388
		c0.057-0.167,0.107-0.291,0.153-0.372c-0.041-0.088-0.074-0.141-0.101-0.159s-0.06-0.028-0.1-0.032
		c-0.091-0.008-0.2,0.034-0.325,0.126c-0.126,0.093-0.234,0.208-0.323,0.345c-0.088,0.137-0.137,0.25-0.146,0.34
		c-0.013,0.14,0.021,0.212,0.1,0.22c0.148,0.014,0.345-0.094,0.589-0.321C34.867,8.478,34.919,8.43,34.961,8.388z"/>
</g>
</svg>
