<?xml version="1.0" encoding="UTF-8"?>
<!-- Generator: Adobe Illustrator 16.0.0, SVG Export Plug-In . SVG Version: 6.00 Build 0)  -->
<!DOCTYPE svg PUBLIC "-//W3C//DTD SVG 1.1//EN" "http://www.w3.org/Graphics/SVG/1.1/DTD/svg11.dtd">
<svg version="1.1" id="Layer_1" xmlns="http://www.w3.org/2000/svg" xmlns:xlink="http://www.w3.org/1999/xlink" x="0px" y="0px" width="29px" height="10px" viewBox="0 0 29 10" enable-background="new 0 0 29 10" xml:space="preserve">
<g>
	<path fill-rule="evenodd" clip-rule="evenodd" fill="#2F2483" d="M3.758,1.695L3.758,1.695L3.758,1.695z M1.688,1.695L1.688,1.695   L1.688,1.695z M1.688,3.765L1.688,3.765L1.688,3.765z M3.758,3.765L3.758,3.765L3.758,3.765z M3.996,3.452   c0.121-0.213,0.19-0.459,0.19-0.722c0-0.404-0.164-0.77-0.428-1.035C3.667,1.604,3.563,1.524,3.45,1.459   C3.236,1.337,2.988,1.267,2.723,1.267c-0.404,0-0.771,0.164-1.035,0.429C1.424,1.96,1.26,2.326,1.26,2.73S1.424,3.5,1.688,3.765   c0.265,0.264,0.631,0.428,1.036,0.428s0.77-0.164,1.035-0.429C3.85,3.672,3.931,3.567,3.996,3.452z"/>
	<path fill-rule="evenodd" clip-rule="evenodd" fill="#008AC0" d="M4.096,1.355L4.096,1.355L4.096,1.355z M4.5,3.518   c0.649-0.046,1.162-0.588,1.162-1.25c0-0.692-0.562-1.253-1.254-1.253c-0.201,0-0.392,0.048-0.56,0.132   C3.937,1.209,4.02,1.279,4.097,1.355C4.448,1.707,4.667,2.194,4.667,2.73C4.667,3.01,4.607,3.277,4.5,3.518z"/>
	<path fill-rule="evenodd" clip-rule="evenodd" fill="#2F2483" d="M2.743,5.93L2.743,5.93L2.743,5.93z M0.673,5.93L0.673,5.93   L0.673,5.93z M0.673,8L0.673,8L0.673,8z M2.743,8c0.264-0.265,0.428-0.631,0.428-1.035S3.007,6.194,2.743,5.93   C2.579,5.767,2.377,5.642,2.15,5.569c-0.14-0.044-0.288-0.067-0.442-0.067c-0.404,0-0.771,0.163-1.035,0.429   C0.608,5.995,0.55,6.066,0.498,6.142C0.338,6.377,0.245,6.66,0.245,6.965c0,0.404,0.164,0.771,0.428,1.035   c0.265,0.265,0.631,0.428,1.035,0.428S2.479,8.265,2.743,8z"/>
	<path fill-rule="evenodd" clip-rule="evenodd" fill="#2F2483" d="M6.901,8.593c0.196-0.196,0.317-0.468,0.317-0.769   c0-0.211-0.06-0.407-0.163-0.573C6.674,7.18,6.332,6.997,6.063,6.738C5.79,6.755,5.543,6.873,5.361,7.055   c-0.142,0.142-0.244,0.323-0.29,0.526C5.053,7.659,5.043,7.74,5.043,7.824c0,0.301,0.122,0.572,0.318,0.77   C5.389,8.62,5.417,8.646,5.446,8.669C5.632,8.82,5.871,8.911,6.131,8.911C6.432,8.911,6.704,8.79,6.901,8.593z"/>
	<path fill-rule="evenodd" clip-rule="evenodd" fill="#008AC0" d="M8.447,6.375L8.447,6.375L8.447,6.375z M8.447,4.305L8.447,4.305   L8.447,4.305z M6.376,4.305L6.376,4.305L6.376,4.305z M6.376,6.375L6.376,6.375L6.376,6.375z M7.412,6.803   c0.404,0,0.771-0.163,1.035-0.429C8.71,6.11,8.875,5.744,8.875,5.34c0-0.404-0.164-0.77-0.428-1.035   c-0.161-0.16-0.358-0.284-0.579-0.356C7.724,3.902,7.571,3.876,7.412,3.876c-0.404,0-0.771,0.164-1.035,0.429   C6.342,4.339,6.31,4.375,6.279,4.413C6.073,4.665,5.948,4.988,5.948,5.34c0,0.35,0.123,0.672,0.328,0.923   c0.032,0.039,0.065,0.076,0.1,0.112C6.62,6.618,6.95,6.776,7.317,6.8C7.348,6.802,7.38,6.803,7.412,6.803z"/>
	<path fill-rule="evenodd" clip-rule="evenodd" fill="#2F2483" d="M6.039,3.966C6.39,3.614,6.875,3.396,7.412,3.396   c0.167,0,0.329,0.021,0.483,0.061C7.806,2.999,7.402,2.653,6.917,2.653c-0.549,0-0.996,0.445-0.996,0.996   c0,0.129,0.024,0.252,0.069,0.365C6.006,3.998,6.021,3.981,6.039,3.966z"/>
	<path fill-rule="evenodd" clip-rule="evenodd" fill="#008AC0" d="M5.023,8.933L5.023,8.933L5.023,8.933z M4.489,9.386   c0.279,0,0.532-0.115,0.712-0.3C5.139,9.039,5.079,8.987,5.022,8.931C4.739,8.647,4.563,8.255,4.563,7.824   c0-0.146,0.021-0.287,0.058-0.422C4.578,7.396,4.534,7.395,4.489,7.395c-0.549,0-0.995,0.445-0.995,0.995S3.94,9.386,4.489,9.386z"/>
	<path fill-rule="evenodd" clip-rule="evenodd" fill="#008AC0" d="M0.335,5.591c0.352-0.352,0.837-0.569,1.373-0.569   c0.135,0,0.267,0.014,0.395,0.041C1.963,4.682,1.597,4.41,1.168,4.41c-0.549,0-0.996,0.446-0.996,0.996   c0,0.107,0.017,0.211,0.049,0.308C0.257,5.671,0.294,5.63,0.335,5.591z"/>
	<path fill-rule="evenodd" clip-rule="evenodd" fill="#1C2B6E" d="M11.619,4.693c0.367,0,0.372,0,0.372-0.073V1.48h-1.078   c-0.363,0-0.372,0-0.372,0.078v3.134c0.367,0,0.372,0,0.372-0.073V1.834h0.707V4.693L11.619,4.693z M13.234,1.421   c-0.413,0-0.904,0.229-0.904,1.799c0,1.335,0.326,1.533,0.762,1.533c0.34,0,0.565-0.151,0.565-0.33   c0-0.078-0.023-0.166-0.056-0.225c-0.083,0.069-0.243,0.142-0.422,0.142c-0.271,0-0.459-0.206-0.459-1.138   c0-1.211,0.293-1.417,0.587-1.417c0.142,0,0.252,0.073,0.298,0.114c0.027-0.055,0.06-0.137,0.06-0.225   C13.666,1.554,13.574,1.421,13.234,1.421L13.234,1.421z M14.836,3.431c0.165-0.372,0.349-0.973,0.44-1.271   c-0.032,0.367-0.055,0.895-0.055,1.354v1.179c0.381,0,0.371,0,0.371-0.073V1.48c-0.33,0-0.353-0.004-0.398,0.096l-0.486,1.166   c-0.161,0.385-0.335,0.909-0.423,1.207c0.019-0.298,0.042-0.688,0.042-0.954V1.48c-0.376,0-0.372,0-0.372,0.078v3.134   c0.335,0,0.354,0.004,0.395-0.096L14.836,3.431L14.836,3.431z M17.025,3.004l0.592-1.523c-0.391,0-0.386,0-0.403,0.06l-0.175,0.459   c-0.097,0.257-0.184,0.537-0.229,0.688c-0.041-0.151-0.129-0.427-0.225-0.688L16.401,1.48c-0.44,0-0.464,0-0.44,0.064l0.578,1.487   l-0.702,1.661h0.321c0.046,0,0.063-0.009,0.087-0.046l0.248-0.574c0.105-0.243,0.197-0.509,0.252-0.674   c0.056,0.165,0.146,0.431,0.243,0.674l0.248,0.62h0.408c0.046,0,0.06-0.023,0.037-0.064L17.025,3.004L17.025,3.004z M17.728,3.068   c0,1.322,0.233,1.666,0.826,1.666c0.605,0,0.867-0.418,0.867-1.68c0-1.239-0.221-1.616-0.817-1.616   C18.012,1.439,17.728,1.848,17.728,3.068L17.728,3.068z M18.145,3.16c0-0.992,0.129-1.34,0.45-1.34c0.33,0,0.422,0.326,0.422,1.244   c0,0.936-0.114,1.29-0.445,1.29C18.246,4.354,18.145,4.014,18.145,3.16L18.145,3.16z M21.408,1.48V4.62   c0,0.073,0,0.073-0.372,0.073V1.834h-0.527c-0.093,1.927-0.151,2.882-0.698,2.882c-0.142,0-0.325-0.046-0.325-0.138   c0-0.096,0.022-0.197,0.055-0.262c0.055,0.028,0.151,0.042,0.207,0.042c0.289,0,0.362-1.285,0.398-2.799   c0-0.078-0.004-0.078,0.372-0.078H21.408L21.408,1.48z M21.743,3.068c0,1.322,0.233,1.666,0.826,1.666   c0.605,0,0.867-0.418,0.867-1.68c0-1.239-0.221-1.616-0.817-1.616C22.027,1.439,21.743,1.848,21.743,3.068L21.743,3.068z    M22.161,3.16c0-0.992,0.128-1.34,0.449-1.34c0.33,0,0.422,0.326,0.422,1.244c0,0.936-0.114,1.29-0.444,1.29   C22.262,4.354,22.161,4.014,22.161,3.16L22.161,3.16z M24.079,4.693c0.073,0,0.073-0.073,0.073-0.073V1.802h0.804   c0.068,0,0.068-0.018,0.068-0.321h-1.17c-0.073,0-0.078,0.078-0.078,0.078v3.134H24.079L24.079,4.693z M26.145,3.431   c0.165-0.372,0.349-0.973,0.44-1.271c-0.032,0.367-0.055,0.895-0.055,1.354v1.179c0.381,0,0.371,0,0.371-0.073V1.48   c-0.33,0-0.353-0.004-0.398,0.096l-0.487,1.166c-0.16,0.385-0.335,0.909-0.422,1.207c0.019-0.298,0.041-0.688,0.041-0.954V1.48   c-0.376,0-0.371,0-0.371,0.078v3.134c0.335,0,0.354,0.004,0.395-0.096L26.145,3.431L26.145,3.431z M28.256,3.436V4.62   c0,0.073-0.01,0.073,0.371,0.073V1.559c0,0,0-0.078-0.077-0.078h-0.455c-0.578,0-0.881,0.271-0.881,0.909   c0,0.477,0.175,0.803,0.418,0.932c-0.138,0.174-0.381,0.624-0.409,1.372c0.083,0.004,0.18,0.009,0.243,0.009   c0.152,0,0.17-0.023,0.17-0.092c0.074-0.794,0.258-1.051,0.349-1.179c0.023,0.004,0.046,0.004,0.074,0.004H28.256L28.256,3.436z    M28.256,3.078c-0.027,0-0.078,0.009-0.143,0.009c-0.037,0-0.083,0-0.119-0.004c-0.238-0.027-0.367-0.28-0.367-0.734   c0-0.326,0.124-0.542,0.399-0.542c0.138,0,0.211,0.009,0.229,0.009V3.078z"/>
	<path fill-rule="evenodd" clip-rule="evenodd" fill="#008AC0" d="M11.449,7.657c0.166-0.372,0.349-0.973,0.44-1.271   c-0.032,0.367-0.055,0.896-0.055,1.354v1.179c0.381,0,0.372,0,0.372-0.073V5.707c-0.331,0-0.353-0.005-0.399,0.097L11.32,6.969   c-0.161,0.386-0.335,0.909-0.422,1.207c0.019-0.298,0.042-0.688,0.042-0.954V5.707c-0.376,0-0.372,0-0.372,0.078v3.134   c0.335,0,0.354,0.005,0.395-0.096L11.449,7.657L11.449,7.657z M13.707,6.028h0.83c0.069,0,0.069-0.019,0.069-0.321h-1.203   c-0.073,0-0.078,0.078-0.078,0.078v3.134h0.596c0.478,0,0.849-0.316,0.849-1.027c0-0.61-0.252-0.913-0.817-0.913h-0.248V6.028   L13.707,6.028z M13.707,7.331c0,0,0.174-0.009,0.229-0.009c0.234,0,0.404,0.129,0.404,0.546c0,0.523-0.188,0.726-0.413,0.726   c-0.051,0-0.22-0.01-0.22-0.01V7.331L13.707,7.331z M15.933,7.657c0.165-0.372,0.349-0.973,0.44-1.271   c-0.032,0.367-0.055,0.896-0.055,1.354v1.179c0.381,0,0.371,0,0.371-0.073V5.707c-0.33,0-0.353-0.005-0.398,0.097l-0.486,1.165   c-0.161,0.386-0.336,0.909-0.423,1.207c0.019-0.298,0.041-0.688,0.041-0.954V5.707c-0.376,0-0.371,0-0.371,0.078v3.134   c0.335,0,0.354,0.005,0.395-0.096L15.933,7.657L15.933,7.657z M17.213,7.409c0.363,0,0.698,0.083,0.698,0.523   c0,0.486-0.229,0.651-0.455,0.651c-0.192,0-0.325-0.105-0.413-0.211c-0.031,0.078-0.068,0.193-0.068,0.285   c0,0.156,0.206,0.32,0.514,0.32c0.418,0,0.826-0.274,0.826-1.06c0-0.473-0.28-0.638-0.399-0.684   c-0.041-0.014-0.092-0.023-0.151-0.027c0.088-0.01,0.129-0.046,0.17-0.074c0.161-0.114,0.298-0.325,0.298-0.771   c0-0.454-0.256-0.716-0.688-0.716c-0.395,0-0.564,0.179-0.564,0.252c0,0.088,0.032,0.179,0.078,0.258   c0.082-0.074,0.215-0.152,0.412-0.152c0.221,0,0.367,0.134,0.367,0.445c0,0.532-0.275,0.638-0.624,0.665V7.409L17.213,7.409z    M20.067,5.707c-0.381,0-0.371,0-0.371,0.078v1.229h-0.73V5.707c-0.376,0-0.371,0-0.371,0.078v3.134c0.376,0,0.371,0,0.371-0.073   V7.359h0.73v1.56c0.376,0,0.371,0,0.371-0.073V5.707L20.067,5.707z M20.848,7.346h0.62c0.068,0,0.068-0.061,0.068-0.345h-0.688   V6.042h0.729c0.069,0,0.069-0.032,0.069-0.335H20.55c-0.073,0-0.078,0.078-0.078,0.078v3.134h1.088   c0.073,0,0.073-0.022,0.073-0.335h-0.785V7.346L20.848,7.346z M22.753,5.647c-0.413,0-0.904,0.229-0.904,1.799   c0,1.335,0.325,1.532,0.762,1.532c0.34,0,0.564-0.151,0.564-0.33c0-0.078-0.022-0.165-0.055-0.225   c-0.083,0.068-0.244,0.143-0.423,0.143c-0.271,0-0.459-0.207-0.459-1.139c0-1.212,0.294-1.418,0.588-1.418   c0.143,0,0.252,0.073,0.298,0.114c0.028-0.055,0.06-0.137,0.06-0.225C23.184,5.78,23.092,5.647,22.753,5.647z"/>
</g>
</svg>