<?xml version="1.0" encoding="utf-8"?>
<!-- Generator: Adobe Illustrator 16.0.0, SVG Export Plug-In . SVG Version: 6.00 Build 0)  -->
<!DOCTYPE svg PUBLIC "-//W3C//DTD SVG 1.1//EN" "http://www.w3.org/Graphics/SVG/1.1/DTD/svg11.dtd">
<svg version="1.1" id="Layer_1" xmlns="http://www.w3.org/2000/svg" xmlns:xlink="http://www.w3.org/1999/xlink" x="0px" y="0px"
	 width="24px" height="7px" viewBox="0 0 24 7" enable-background="new 0 0 24 7" xml:space="preserve">
<g>
	<path fill-rule="evenodd" clip-rule="evenodd" fill="#FFFFFF" d="M21.157,3.546c-0.022,0.037,0.127,0.299,0.2,0.31
		c0.076-0.013,0.162-0.026,0.256-0.037c-0.206,0.311-0.381,0.58-0.471,0.733c-0.194,0.332-0.271,0.919,0.336,0.921
		c0.104,0,0.224-0.013,0.36-0.058c0.427-0.12,0.717-0.261,1.091-0.232c0.058-0.044,0.166-0.203,0.1-0.234
		c-0.264-0.017-0.511-0.043-1.094,0.126c-0.113,0.036-0.347,0.094-0.193-0.246c0.068-0.167,0.351-0.601,0.668-1.076
		c0.563-0.03,1.155-0.033,1.488-0.005c0.023-0.003,0.116-0.138,0.1-0.145c-0.258-0.07-0.792-0.159-1.361-0.188
		c0.228-0.338,0.452-0.671,0.611-0.919c0.025-0.096-0.355-0.491-0.47-0.425c-0.165,0.257-0.503,0.755-0.833,1.249
		c0.086,0.02,0.208,0.048,0.353,0.085C21.881,3.403,21.47,3.44,21.157,3.546z"/>
	<path fill-rule="evenodd" clip-rule="evenodd" fill="#FFFFFF" d="M17.676,4.388c0.257-0.003,0.592-0.111,0.697-0.305
		c0.029-0.055-0.125-0.194-0.143-0.188C18.096,3.945,17.863,4.155,17.676,4.388L17.676,4.388z M13.204,2.649l0.005-0.006
		c0.067-0.091,0.451,0.351,0.41,0.423l-0.3,0.491c-0.178,0.114-0.455,0.371-0.615,0.591c0.145-0.163,0.584-0.414,0.88-0.53
		c0.198-0.07,0.398-0.106,0.592-0.098c0.101,0.004,0.464,0.297,0.42,0.375C14.253,4.456,13.535,5.176,14.193,5
		c0.236-0.1,0.508-0.209,0.692-0.333c0.03-0.14,0.095-0.293,0.201-0.457c0.483-0.742,1.061-0.942,1.491-0.833
		c0.087,0.029,0.179,0.087,0.275,0.172c0.012-0.013,0.021-0.021,0.039-0.024c0.044-0.007,0.144,0.014,0.144,0.014
		c-0.094,0.237-0.357,0.684-0.569,0.785c-0.05,0.027-0.265-0.235-0.235-0.284c0.081-0.103,0.186-0.123,0.212-0.19
		c-0.007-0.029-0.082-0.116-0.107-0.115c-0.125,0.034-0.439,0.4-0.619,0.654c-0.184,0.257-0.272,0.483-0.089,0.697
		c0.063,0.109,0.322,0.013,0.423-0.031c0.243-0.106,0.478-0.214,0.707-0.317c0.052-0.194,0.104-0.281,0.271-0.529
		c0.415-0.622,1.177-1.041,1.615-0.644c0.196,0.178,0.192,0.328,0.069,0.513c-0.252,0.379-0.802,0.576-1.178,0.505
		c-0.062,0.093-0.102,0.171-0.13,0.252c-0.053,0.152-0.036,0.238,0.032,0.274c0.138,0.072,0.719-0.1,1.444-0.355l0.198-0.309
		l0.151-0.241c0.047-0.065,0.341,0.105,0.416,0.406l-0.134,0.223c-0.021,0.081-0.013,0.165,0.034,0.216
		c0.145,0.154,0.368-0.195,0.576-0.506c0.188-0.282,0.276-0.496-0.061-0.586c-0.162-0.038-0.456-0.015-0.696,0.024
		c-0.049,0.008-0.148-0.103-0.15-0.158c0.2-0.136,0.565-0.248,0.883-0.274c0.594,0.02,1.056,0.441,0.703,1.053
		c-0.393,0.679-0.913,0.873-1.244,0.875c-0.199,0.001-0.269-0.149-0.318-0.311l-0.025,0.167l-0.852,1.427
		c-0.058-0.029-0.579-0.268-0.391-0.589L18.659,5.1c-0.47,0.188-0.972,0.354-1.272,0.371C17.15,5.484,16.95,5.43,16.861,5.336
		c-0.063-0.066-0.101-0.143-0.12-0.224c0.029-0.034,0.082-0.089,0.161-0.165c-0.357,0.186-0.723,0.35-1.096,0.502
		c-0.407,0.09-0.754-0.051-0.885-0.339c0-0.012,0.062-0.087,0.202-0.223c-0.356,0.186-0.838,0.431-1.211,0.531
		c-0.564,0.15-0.945-0.182-0.747-0.475l0.439-0.652c0.128-0.221,0.09-0.23-0.111-0.131c-0.27,0.144-0.759,0.45-1.109,0.923
		L12.167,5.44c-0.034,0.053-0.549-0.397-0.474-0.489l1.012-1.552c0.073-0.097,0.009-0.155-0.106-0.104
		c-0.2,0.088-0.56,0.236-0.93,0.36c0.093,0.309-0.016,0.663-0.226,0.977c-0.381,0.571-0.879,0.851-1.31,0.845
		C9.687,5.47,9.45,5.04,9.526,4.628c-0.041,0.09-0.078,0.177-0.111,0.26C9.004,5.097,8.541,5.295,8.132,5.44
		C7.623,5.521,7.158,5.474,6.867,5.209C6.735,5.088,6.652,4.945,6.611,4.785c0.036-0.047,0.093-0.124,0.167-0.231
		C6.407,4.82,5.222,5.48,4.867,5.471C4.392,5.457,4.128,4.999,4.265,4.554C4.237,4.548,4.208,4.54,4.18,4.532
		C4.021,4.51,3.88,4.065,4.296,4.236c0.03,0.014,0.062,0.025,0.096,0.036C4.451,4.159,4.51,4.057,4.568,3.965
		C5.28,2.858,5.992,3.29,6.195,3.571c0.034,0.006,0.063,0.017,0.08,0.034c0.082,0.082,0.006,0.312-0.065,0.4
		C6.009,4.25,5.501,4.523,4.93,4.587C4.769,4.935,4.833,5.099,5.057,5.048c0.36-0.081,1.024-0.431,1.535-0.705
		c0.049-0.362,0.237-0.772,0.511-1.185c1.237-1.868,3.272-3.162,3.94-2.551c0.105,0.096,0.17,0.244,0.188,0.384
		c0,0.001,0.041-0.071,0.049-0.22c0.235-0.13,0.454-0.172,0.588-0.174c0.145-0.005,0.489,0.077,0.386,0.165
		c-0.344,0-0.675,0.462-0.935,0.854c-0.124,0.187-0.248,0.372-0.373,0.557c-0.368-0.099-0.553-0.406-0.481-0.53
		c0.095-0.142,0.186-0.288,0.292-0.422c0.005-0.081-0.025-0.135-0.074-0.18c-0.528-0.478-4.137,2.889-3.17,3.809
		c0.175,0.166,0.38,0.209,0.612,0.211c0.59-0.167,1.097-0.404,1.465-0.613c0.097-0.208,0.294-0.426,0.54-0.446
		c0.095-0.008,0.332,0.157,0.277,0.25c-0.073,0.064-0.236,0.19-0.339,0.26C9.88,4.719,9.904,4.936,10.025,5.046
		c0.189,0.171,0.958-0.6,0.958-1.083c0.055-0.045,0.118-0.105,0.189-0.179c-0.553,0.271-1.135,0.06-0.907-0.302
		c0.246-0.39,0.887-0.417,1.199-0.149C12.17,3.172,13.078,2.828,13.204,2.649L13.204,2.649z M5.09,4.305
		c0.422-0.06,0.826-0.249,0.861-0.55C5.622,3.81,5.31,3.996,5.09,4.305z"/>
	<path fill-rule="evenodd" clip-rule="evenodd" fill="#FFFFFF" d="M0,2.607c-0.011,0.03,0.274,0.034,0.37-0.028
		c0.974-0.898,3.49-2.642,4.472-1.734C5.061,1.047,5.2,1.563,4.763,2.223C4.406,2.761,3.81,3.251,3.162,3.604L3.156,3.588
		C3.12,3.429,2.594,3.653,2.563,3.883c-0.13,0.051-0.222,0.065-0.358,0.08l1.164-1.925c0.24-0.416,0.246-0.437-0.058-0.455
		C3.15,1.574,2.95,1.542,2.711,1.957L0.757,4.985c-0.325,0.537,0.442,0.47,0.549,0.47l0.451-0.746
		c-0.111-0.047-0.198-0.104-0.283-0.15C1.962,4.605,2.206,4.59,2.676,4.414c0.302,0.779,1.153,1.717,1.897,2.043
		C4.729,6.52,5.004,6.51,4.939,6.434c-1.09-1.096-1.37-1.701-1.598-2.33c0.834-0.46,1.649-1.161,1.997-1.706
		c0.586-0.917,0.554-1.552,0.102-1.975C4.076-0.854,0.947,1.391,0,2.607z"/>
</g>
</svg>
