<?xml version="1.0" encoding="utf-8"?>
<!-- Generator: Adobe Illustrator 16.0.0, SVG Export Plug-In . SVG Version: 6.00 Build 0)  -->
<!DOCTYPE svg PUBLIC "-//W3C//DTD SVG 1.1//EN" "http://www.w3.org/Graphics/SVG/1.1/DTD/svg11.dtd">
<svg version="1.1" id="Layer_1" xmlns="http://www.w3.org/2000/svg" xmlns:xlink="http://www.w3.org/1999/xlink" x="0px" y="0px"
	 width="17px" height="17px" viewBox="0 0 17 17" enable-background="new 0 0 17 17" xml:space="preserve">
<g>
	<path fill-rule="evenodd" clip-rule="evenodd" fill="#FFFFFF" d="M8.4,15.8c3.966,0,7.2-3.234,7.2-7.2c0-3.965-3.234-7.2-7.2-7.2
		S1.2,4.634,1.2,8.6C1.2,12.565,4.435,15.8,8.4,15.8z"/>
	<path fill-rule="evenodd" clip-rule="evenodd" fill="#DEEFED" d="M8.4,13.399c2.644,0,4.8-2.156,4.8-4.8s-2.156-4.8-4.8-4.8
		S3.6,5.956,3.6,8.6S5.757,13.399,8.4,13.399z"/>
	<path fill-rule="evenodd" clip-rule="evenodd" fill="#1A2B6D" d="M10.56,9.032H9.408c-0.311,0-0.563,0.246-0.576,0.553
		C8.1,9.469,7.544,8.911,7.418,8.167c0.306-0.014,0.55-0.267,0.55-0.576V6.44c0-0.318-0.259-0.577-0.576-0.577H6.24
		c-0.318,0-0.576,0.259-0.576,0.577v1.439c0,1.906,1.55,3.457,3.456,3.457h1.439c0.318,0,0.576-0.259,0.576-0.576V9.607
		C11.136,9.29,10.878,9.032,10.56,9.032L10.56,9.032z M9.12,10.76L9.12,10.76c-1.588,0-2.88-1.292-2.88-2.88V6.44h1.152v1.151H7.104
		c-0.077,0-0.151,0.031-0.205,0.086c-0.054,0.056-0.084,0.13-0.083,0.207c0.021,1.311,1.011,2.299,2.304,2.299
		c0.159,0,0.288-0.129,0.288-0.288V9.607h1.151l0.001,1.152H9.12z"/>
</g>
</svg>
