<?xml version="1.0" encoding="utf-8"?>
<!-- Generator: Adobe Illustrator 16.0.0, SVG Export Plug-In . SVG Version: 6.00 Build 0)  -->
<!DOCTYPE svg PUBLIC "-//W3C//DTD SVG 1.1//EN" "http://www.w3.org/Graphics/SVG/1.1/DTD/svg11.dtd">
<svg version="1.1" id="Layer_1" xmlns="http://www.w3.org/2000/svg" xmlns:xlink="http://www.w3.org/1999/xlink" x="0px" y="0px"
	 width="17px" height="17px" viewBox="0 0 17 17" enable-background="new 0 0 17 17" xml:space="preserve">
<g>
	<g>
		<path fill-rule="evenodd" clip-rule="evenodd" fill="#FFFFFF" d="M8.4,15.8c3.966,0,7.2-3.234,7.2-7.2c0-3.965-3.234-7.2-7.2-7.2
			S1.2,4.634,1.2,8.6C1.2,12.565,4.435,15.8,8.4,15.8z"/>
		<path fill-rule="evenodd" clip-rule="evenodd" fill="#DCE7F7" d="M8.4,13.596c2.644,0,4.8-2.156,4.8-4.8
			c0-2.643-2.156-4.8-4.8-4.8s-4.8,2.157-4.8,4.8C3.6,11.439,5.757,13.596,8.4,13.596z"/>
	</g>
	<path fill-rule="evenodd" clip-rule="evenodd" fill="#1A2B6D" d="M10.704,6.923H6.096C5.779,6.923,5.52,7.182,5.52,7.5v2.592
		c0,0.317,0.259,0.575,0.576,0.575h4.608c0.317,0,0.576-0.258,0.576-0.575V7.5C11.28,7.182,11.021,6.923,10.704,6.923L10.704,6.923z
		 M10.161,7.5L10.161,7.5L8.4,8.6L6.64,7.5H10.161L10.161,7.5z M6.096,10.092L6.096,10.092V7.839l2.151,1.345
		c0.047,0.029,0.1,0.044,0.153,0.044c0.053,0,0.105-0.015,0.152-0.044l2.151-1.345v2.253H6.096z"/>
</g>
</svg>
