<?xml version="1.0" encoding="utf-8"?>
<!-- Generator: Adobe Illustrator 16.0.0, SVG Export Plug-In . SVG Version: 6.00 Build 0)  -->
<!DOCTYPE svg PUBLIC "-//W3C//DTD SVG 1.1//EN" "http://www.w3.org/Graphics/SVG/1.1/DTD/svg11.dtd">
<svg version="1.1" id="Layer_1" xmlns="http://www.w3.org/2000/svg" xmlns:xlink="http://www.w3.org/1999/xlink" x="0px" y="0px"
	 width="17px" height="17px" viewBox="0 0 17 17" enable-background="new 0 0 17 17" xml:space="preserve">
<g>
	<path fill-rule="evenodd" clip-rule="evenodd" fill="#FFFFFF" d="M8.4,15.8c3.966,0,7.2-3.234,7.2-7.2c0-3.965-3.234-7.2-7.2-7.2
		S1.2,4.634,1.2,8.6C1.2,12.565,4.435,15.8,8.4,15.8z"/>
	<path fill-rule="evenodd" clip-rule="evenodd" fill="#F0E2F0" d="M8.4,13.399c2.644,0,4.8-2.156,4.8-4.8s-2.156-4.8-4.8-4.8
		S3.6,5.956,3.6,8.6S5.757,13.399,8.4,13.399z"/>
	<g>
		<path fill-rule="evenodd" clip-rule="evenodd" fill="#1A2B6D" d="M8.4,10.777c0.692-0.83,1.728-2.253,1.728-3.329
			c0-0.953-0.774-1.728-1.728-1.728S6.672,6.495,6.672,7.448C6.672,8.524,7.709,9.947,8.4,10.777L8.4,10.777z M8.4,6.296L8.4,6.296
			c0.635,0,1.151,0.517,1.151,1.152c0,0.722-0.701,1.813-1.151,2.413c-0.45-0.6-1.152-1.69-1.152-2.413
			C7.249,6.813,7.765,6.296,8.4,6.296z"/>
		<circle fill-rule="evenodd" clip-rule="evenodd" fill="#1A2B6D" cx="8.401" cy="7.448" r="0.576"/>
		<rect x="7.249" y="10.903" fill-rule="evenodd" clip-rule="evenodd" fill="#1A2B6D" width="2.303" height="0.576"/>
	</g>
</g>
</svg>
