<?xml version="1.0" encoding="utf-8"?>
<!-- Generator: Adobe Illustrator 15.0.0, SVG Export Plug-In . SVG Version: 6.00 Build 0)  -->
<!DOCTYPE svg PUBLIC "-//W3C//DTD SVG 1.1//EN" "http://www.w3.org/Graphics/SVG/1.1/DTD/svg11.dtd">
<svg version="1.1" id="Layer_1" xmlns="http://www.w3.org/2000/svg" xmlns:xlink="http://www.w3.org/1999/xlink" x="0px" y="0px"
	 width="170px" height="154px" viewBox="0 0 170 154" enable-background="new 0 0 170 154" xml:space="preserve">
<g>
	<g>
		<polygon fill-rule="evenodd" clip-rule="evenodd" fill="#AEBFD6" points="70.139,104.695 70.139,122.398 60.112,122.398 
			60.112,110.918 		"/>
		<g>
			<path fill-rule="evenodd" clip-rule="evenodd" fill="#DEEFED" d="M34.641,76.788c0,0,0.818,4.241-4.815,5.511l-0.003-0.004
				c0.106,2.063-0.22,4.179-1.034,6.227c-3.036,7.625-11.688,11.346-19.313,8.312C1.845,93.795-1.879,85.148,1.157,77.522
				c3.037-7.631,11.684-11.354,19.314-8.317c4.19,1.668,7.201,5.028,8.561,8.986C30.966,79.091,34.641,76.788,34.641,76.788z"/>
			<g>
				<g>
					<path fill-rule="evenodd" clip-rule="evenodd" fill="#F39D9A" d="M16.864,84.83c0.009,0.292-0.02,0.936-0.086,1.93
						c-0.02,0.275-0.029,1.245-0.029,2.907l-2.013-0.05c0.038-1.145,0.086-2.761,0.144-4.85c0-0.335-0.02-0.665-0.058-0.99
						c-0.029-0.233-0.077-0.351-0.144-0.351c-0.192,0-0.384,0.096-0.576,0.288c0.01,0.075,0.024,0.184,0.043,0.325
						c0.029,0.185,0.067,2.06,0.115,5.627l-1.942-0.112c0.029-2.841,0.067-4.482,0.115-4.925c-0.077-0.803-0.187-1.203-0.331-1.203
						c-0.086,0-0.167,0.017-0.244,0.05l-0.129,3.07c-0.02,0.585-0.029,1.625-0.029,3.12l-1.985-0.063l0.245-7.544l1.884,0.101
						c0.221-0.159,0.475-0.251,0.762-0.276c0.394,0,0.748,0.201,1.064,0.602c0.498-0.4,1.007-0.602,1.524-0.602
						c0.623,0,1.055,0.289,1.294,0.865C16.71,83.243,16.835,83.937,16.864,84.83z"/>
					<path fill-rule="evenodd" clip-rule="evenodd" fill="#F39D9A" d="M22.013,82.312l-0.101,4.06
						c-0.009,0.401-0.014,1.5-0.014,3.296l-2.589-0.088l0.59-7.355L22.013,82.312L22.013,82.312z M22.243,80.394L22.243,80.394
						c-0.039,0.268-0.177,0.502-0.417,0.702c-0.25,0.184-0.523,0.28-0.82,0.288c-0.326-0.008-0.618-0.104-0.877-0.288
						c-0.259-0.184-0.388-0.418-0.388-0.702c0-0.301,0.125-0.542,0.374-0.727c0.24-0.184,0.537-0.275,0.892-0.275
						c0.326,0,0.609,0.096,0.849,0.288C22.075,79.863,22.204,80.102,22.243,80.394z"/>
					<path fill-rule="evenodd" clip-rule="evenodd" fill="#F39D9A" d="M31.346,84.918c0.009,0.25,0,0.723-0.029,1.416
						c-0.019,0.543-0.029,1.654-0.029,3.333l-2.229-0.038c0.058-0.426,0.11-1.236,0.158-2.431c0.038-0.568,0.072-1.328,0.101-2.28
						c0.009-0.385-0.053-0.71-0.187-0.978c-0.182-0.343-0.47-0.514-0.863-0.514c-0.335,0-0.638,0.079-0.906,0.237l-0.072,2.269
						c-0.019,0.593-0.029,1.838-0.029,3.734l-2.358-0.063l0.46-7.544l2.056,0.088c0.364-0.176,0.719-0.264,1.064-0.264
						c0.854,0,1.548,0.238,2.085,0.715C31.068,83.176,31.327,83.948,31.346,84.918z"/>
				</g>
			</g>
		</g>
		<g>
			<path fill-rule="evenodd" clip-rule="evenodd" fill="#DEEFED" d="M135.76,60.675c0,0-0.818,4.241,4.814,5.511l0.003-0.003
				c-0.105,2.063,0.221,4.178,1.034,6.226c3.036,7.625,11.688,11.346,19.313,8.312c7.631-3.038,11.354-11.685,8.319-19.311
				c-3.037-7.631-11.684-11.354-19.314-8.317c-4.19,1.668-7.201,5.028-8.562,8.985C139.434,62.979,135.76,60.675,135.76,60.675z"/>
			<g>
				<path fill-rule="evenodd" clip-rule="evenodd" fill="#AEBFD6" d="M144.574,69.183c0.012,0.354-0.023,1.131-0.104,2.333
					c-0.023,0.333-0.034,1.504-0.034,3.514l-2.434-0.061c0.046-1.383,0.104-3.337,0.174-5.861c0-0.404-0.023-0.803-0.07-1.197
					c-0.034-0.282-0.093-0.424-0.174-0.424c-0.231,0-0.463,0.117-0.695,0.349c0.012,0.091,0.029,0.222,0.053,0.394
					c0.035,0.222,0.081,2.489,0.139,6.8l-2.347-0.136c0.035-3.433,0.081-5.417,0.14-5.952c-0.093-0.97-0.227-1.455-0.4-1.455
					c-0.104,0-0.202,0.021-0.295,0.061l-0.156,3.71c-0.023,0.707-0.035,1.964-0.035,3.771l-2.398-0.076l0.295-9.118l2.277,0.122
					c0.267-0.191,0.573-0.303,0.921-0.333c0.476,0,0.904,0.242,1.287,0.727c0.602-0.484,1.216-0.727,1.842-0.727
					c0.753,0,1.274,0.348,1.564,1.045C144.389,67.264,144.539,68.102,144.574,69.183z"/>
				<path fill-rule="evenodd" clip-rule="evenodd" fill="#AEBFD6" d="M153.039,74.907l-2.677-0.09v-0.122
					c-0.44,0.192-0.863,0.303-1.269,0.333c-1.078-0.041-1.987-0.303-2.729-0.788c-0.823-0.545-1.233-1.267-1.233-2.166
					c0-1.13,0.567-2.02,1.703-2.666c0.753-0.424,1.669-0.636,2.746-0.636c0.278,0,0.608,0.036,0.991,0.106
					c-0.104-0.878-0.574-1.318-1.408-1.318c-0.603,0-1.177,0.147-1.721,0.439l-1.286-1.56c1.089-0.545,2.091-0.818,3.007-0.818
					c1.193,0,2.149,0.354,2.868,1.06c0.648,0.656,0.984,1.52,1.008,2.59c0.012,0.434,0.012,0.843,0,1.227l-0.034,1.257
					c-0.013,0.424-0.018,1.126-0.018,2.105C152.987,74.337,153.005,74.686,153.039,74.907L153.039,74.907z M150.484,70.727
					L150.484,70.727c-0.302-0.07-0.586-0.105-0.852-0.105c-0.614,0-1.102,0.141-1.461,0.424c-0.394,0.323-0.591,0.667-0.591,1.03
					c0,0.394,0.157,0.676,0.47,0.848c0.266,0.162,0.614,0.243,1.043,0.243c0.417,0,0.857-0.142,1.32-0.424L150.484,70.727z"/>
				<path fill-rule="evenodd" clip-rule="evenodd" fill="#AEBFD6" d="M162.495,66.501l-2.902,3.711l1.233,1.848
					c0.533,0.798,0.968,1.358,1.304,1.681l-2.294,1.288l-1.756-2.833l-2.208,2.833l-2.225-1.166
					c0.661-0.707,1.292-1.434,1.895-2.181l1.234-1.56l-2.434-3.908l2.208-0.59l1.738,2.62l2.103-2.62L162.495,66.501z"/>
			</g>
		</g>
		<g>
			<circle fill-rule="evenodd" clip-rule="evenodd" fill="#E08F72" cx="54.242" cy="66.544" r="14.027"/>
			<path fill-rule="evenodd" clip-rule="evenodd" fill="#E08F72" d="M82.7,75.67l-8.3-5.09l-9.05,5.62c0-0.34-0.04-0.66-0.1-0.97
				l-0.01-0.02c-1.05-4.89-9.78-5.48-10.97,5.36c-0.01,0.14-0.03,0.279-0.04,0.43c-0.06,0.67-0.1,1.39-0.1,2.16L36.88,93.88
				c6.15-5.99,3.8-20.61,3.39-26.13c-0.02-0.2-0.03-0.4-0.03-0.59c-0.02-0.2-0.02-0.41-0.02-0.61c0-7.72,6.21-13.97,13.91-14.03
				h0.18C81.38,52.62,82.7,75.67,82.7,75.67z"/>
			<path fill-rule="evenodd" clip-rule="evenodd" fill="#EED2B9" d="M82.695,75.671c0,0-6.79,23.147-21.763,32.968
				c-4.257-2.988-5.296-5.079-6.69-25.549c0.877-0.544,20.154-12.507,20.154-12.507L82.695,75.671z"/>
			<polygon fill-rule="evenodd" clip-rule="evenodd" fill="#E08F72" points="65.372,76.181 65.346,76.202 65.346,76.195 			"/>
			<path fill-rule="evenodd" clip-rule="evenodd" fill="#EED2B9" d="M82.696,75.674c0,0-0.81,2.709-2.469,6.673
				c-0.034,0.083-0.068,0.164-0.096,0.246c-1.09,2.758-4.472,12.044-4.472,16.192h-4.636c-2.86,3.8-6.127,7.255-10.092,9.854
				c-3.443-2.416-5.683-3.773-6.801-15.239l0.001-10.381c0.007-0.714,0.041-1.386,0.095-2.023
				c1.008-11.281,9.944-10.732,11.015-5.788c0.068,0.315,0.103,0.638,0.103,0.987v0.007l0.026-0.021l9.026-5.596L82.696,75.674z"/>
			<polygon fill-rule="evenodd" clip-rule="evenodd" fill="#EED2B9" points="65.372,76.181 65.346,76.202 65.346,76.195 			"/>
			<polygon fill-rule="evenodd" clip-rule="evenodd" fill="#DBBAA1" points="36.876,93.873 54.131,104.464 54.133,83.019 			"/>
			<path fill-rule="evenodd" clip-rule="evenodd" fill="#DBBAA1" d="M82.696,75.674c0,0-0.81,2.709-2.469,6.673
				c-0.034,0.083-0.068,0.164-0.096,0.246c-1.09,2.758-4.472,12.044-4.472,16.192h-4.636c-2.86,3.8-6.127,7.255-10.092,9.854
				c-3.457-2.428-5.71-3.69-6.801-15.239L82.696,75.674z"/>
			<polygon fill-rule="evenodd" clip-rule="evenodd" fill="#DEEFED" points="15.233,107.302 36.876,93.873 54.131,104.464 
				54.131,131.18 			"/>
			<path fill-rule="evenodd" clip-rule="evenodd" fill="#CA81B2" d="M49.572,101.666c0,0-0.891,7.059,4.56,7.059v-4.261
				L49.572,101.666z"/>
			<path fill-rule="evenodd" clip-rule="evenodd" fill="#CA81B2" d="M54.131,108.725v22.455l-7.193-4.415
				C46.938,126.765,48.538,114.318,54.131,108.725z"/>
			<g>
				<path fill-rule="evenodd" clip-rule="evenodd" fill="#DEEFED" d="M68.08,70.39c-1.16,6.45-7.33,10.75-13.79,9.59
					c-6.46-1.15-10.75-7.331-9.59-13.791c0.08-0.46,0.19-0.9,0.32-1.34l-1.86-1.31l-0.95-0.56l2.6-4.24l2.64,1.71
					c2.67-3.02,6.79-4.61,11.03-3.85C64.94,57.76,69.24,63.93,68.08,70.39z"/>
				<g>
					<path fill-rule="evenodd" clip-rule="evenodd" fill="#BCC8E8" d="M44.69,61.02c-0.55,0.14-1.1,0.22-1.65,0.22
						c-1.09,0-2.16-0.29-3.13-0.84c-1.45-0.84-2.5-2.19-2.93-3.81c-0.35-1.27-1.16-2.33-2.3-2.98c-1.14-0.65-2.46-0.83-3.73-0.48
						l-0.36-1.33c1.62-0.44,3.32-0.22,4.77,0.62c1.46,0.84,2.5,2.19,2.94,3.81c0.34,1.27,1.16,2.33,2.3,2.98
						c1.13,0.65,2.46,0.82,3.73,0.48L44.69,61.02z"/>
				</g>
			</g>
			<linearGradient id="SVGID_1_" gradientUnits="userSpaceOnUse" x1="60.3384" y1="95.5293" x2="65.7629" y2="86.2688">
				<stop  offset="0.1232" style="stop-color:#F1F1F2;stop-opacity:0.85"/>
				<stop  offset="0.2847" style="stop-color:#F3F3F4;stop-opacity:0.6934"/>
				<stop  offset="1" style="stop-color:#F8F8F9;stop-opacity:0"/>
				<stop  offset="1" style="stop-color:#FFFFFF;stop-opacity:0"/>
			</linearGradient>
			<path fill-rule="evenodd" clip-rule="evenodd" fill="url(#SVGID_1_)" d="M54.75,85.161c0,1.057,0.64,5.571,7.35,5.571
				c6.71,0,13.877,0,13.877,0l0.069-5.571C52.604,77.706,54.75,83.222,54.75,85.161z"/>
			<polygon fill-rule="evenodd" clip-rule="evenodd" fill="#F39B9C" points="36.876,93.873 46.938,126.765 15.233,107.302 			"/>
			<g>
				<defs>
					<path id="SVGID_2_" d="M65.34,76.099c-2.641,3.024-6.749,4.63-10.994,3.889c1.434-10.232,9.862-9.574,10.898-4.78
						C65.305,75.495,65.34,75.783,65.34,76.099z"/>
				</defs>
				<clipPath id="SVGID_3_">
					<use xlink:href="#SVGID_2_"  overflow="visible"/>
				</clipPath>
			</g>
			<g>
				<linearGradient id="SVGID_4_" gradientUnits="userSpaceOnUse" x1="54.3462" y1="76.0107" x2="65.3403" y2="76.0107">
					<stop  offset="0.1232" style="stop-color:#F1F1F2;stop-opacity:0.85"/>
					<stop  offset="0.2847" style="stop-color:#F3F3F4;stop-opacity:0.6934"/>
					<stop  offset="1" style="stop-color:#F8F8F9;stop-opacity:0"/>
					<stop  offset="1" style="stop-color:#FFFFFF;stop-opacity:0"/>
				</linearGradient>
				<path fill-rule="evenodd" clip-rule="evenodd" fill="url(#SVGID_4_)" d="M65.34,76.099c-2.641,3.024-6.749,4.63-10.994,3.889
					c1.434-10.232,9.862-9.574,10.898-4.78C65.305,75.495,65.34,75.783,65.34,76.099z"/>
			</g>
		</g>
		<g>
			<polygon fill-rule="evenodd" clip-rule="evenodd" fill="#DEEFED" points="102.131,114.388 102.131,84.184 123.697,70.917 
				148.33,86.027 			"/>
			<path fill-rule="evenodd" clip-rule="evenodd" fill="#CA81B2" d="M106.743,81.442c0,0,1.834,9.222-4.612,9.222v-6.48
				L106.743,81.442z"/>
			<path fill-rule="evenodd" clip-rule="evenodd" fill="#CA81B2" d="M102.131,90.664v23.724l7.34-4.507
				C109.471,109.881,107.724,96.258,102.131,90.664z"/>
			<path fill-rule="evenodd" clip-rule="evenodd" fill="#EED2B9" d="M120.869,51.979c2.043,2.201,2.839,4.122,2.839,5.726
				c0,4.588-6.563,6.542-9.231,4.932v4.402c-9.965,6.68-22.213,2.688-22.213,2.688l-4.76-2.915
				c-1.097-3.203,7.811-20.52,7.811-20.52s5.844-3.003,5.385-6.693c2.428-2.407,4.828-4.28,8.168-6.021h0.007l20.87,12.818
				L120.869,51.979z"/>
			<polygon fill-rule="evenodd" clip-rule="evenodd" fill="#EED2B9" points="102.131,84.184 102.131,70.881 120.869,51.979 
				126.78,48.261 123.708,70.91 			"/>
			<path fill-rule="evenodd" clip-rule="evenodd" fill="#DBBAA1" d="M123.708,57.705c0,4.588-6.563,6.542-9.231,4.932v4.402
				c-9.813,6.577-21.836,2.805-22.206,2.695l28.599-17.755C122.912,54.18,123.708,56.101,123.708,57.705z"/>
			<path fill-rule="evenodd" clip-rule="evenodd" fill="#E08F72" d="M140.8,48.611c0,1.454-0.219,2.86-0.631,4.184
				c-0.979,3.135-3.03,5.783-5.722,7.542l0.029-0.005c-0.212,0.13-0.487,0.295-0.796,0.487c-0.014,0.007-0.027,0.014-0.041,0.027
				c-3.038,1.859-9.931,6.248-9.931,10.061V57.705c0-1.604-0.795-3.525-2.839-5.726l5.912-3.717
				c-20.883-5.939-17.907-14.683-17.907-14.683s13.01-7.002,25.465,3.223c1.419,1.166,2.825,2.558,4.211,4.204
				c1.221,1.873,1.995,4.061,2.194,6.406c0.021,0.192,0.034,0.391,0.034,0.59C140.793,48.2,140.8,48.406,140.8,48.611z"/>
			<circle fill-rule="evenodd" clip-rule="evenodd" fill="#DEEFED" cx="124.078" cy="48.946" r="11.878"/>
			<linearGradient id="SVGID_5_" gradientUnits="userSpaceOnUse" x1="107.4355" y1="62.5103" x2="101.9325" y2="52.8025">
				<stop  offset="0.1232" style="stop-color:#F1F1F2;stop-opacity:0.85"/>
				<stop  offset="0.2847" style="stop-color:#F3F3F4;stop-opacity:0.6934"/>
				<stop  offset="1" style="stop-color:#F8F8F9;stop-opacity:0"/>
				<stop  offset="1" style="stop-color:#FFFFFF;stop-opacity:0"/>
			</linearGradient>
			<path fill-rule="evenodd" clip-rule="evenodd" fill="url(#SVGID_5_)" d="M113.93,53.448c0,1.056-0.64,5.571-7.349,5.571
				c-6.711,0-13.877,0-13.877,0l-0.07-5.571C116.076,45.994,113.93,51.509,113.93,53.448z"/>
			<polygon fill-rule="evenodd" clip-rule="evenodd" fill="#AEBFD6" points="109.471,109.881 123.708,70.91 148.33,86.027 			"/>
			<linearGradient id="SVGID_6_" gradientUnits="userSpaceOnUse" x1="128.541" y1="51.4326" x2="113.9611" y2="51.8143">
				<stop  offset="0.1232" style="stop-color:#F1F1F2;stop-opacity:0.85"/>
				<stop  offset="0.2847" style="stop-color:#F3F3F4;stop-opacity:0.6934"/>
				<stop  offset="1" style="stop-color:#F8F8F9;stop-opacity:0"/>
				<stop  offset="1" style="stop-color:#FFFFFF;stop-opacity:0"/>
			</linearGradient>
			<path fill-rule="evenodd" clip-rule="evenodd" fill="url(#SVGID_6_)" d="M120.87,51.979c2.044,2.201,2.839,4.122,2.839,5.726
				c0,1.193-0.445,2.209-1.151,3.024c-0.192-0.02-0.385-0.055-0.576-0.089c-6.461-1.159-10.754-7.331-9.595-13.792
				c0.274-1.529,0.829-2.935,1.604-4.177c2.695,1.914,6.742,3.869,12.791,5.59L120.87,51.979z"/>
			<g>
				<g>
					<g>
						<path fill-rule="evenodd" clip-rule="evenodd" fill="#DEEFED" d="M110.522,46.512l-0.101,6.72L110.522,46.512z"/>
						<path fill-rule="evenodd" clip-rule="evenodd" fill="#DEEFED" d="M110.422,54.261c-0.005,0-0.01,0-0.016,0
							c-0.567-0.009-1.021-0.476-1.013-1.044l0.101-6.72c0.009-0.563,0.468-1.013,1.028-1.013c0.006,0,0.011,0,0.016,0
							c0.568,0.008,1.021,0.476,1.014,1.044l-0.102,6.72C111.442,53.81,110.983,54.261,110.422,54.261z"/>
					</g>
					<g>
						<path fill-rule="evenodd" clip-rule="evenodd" fill="#DEEFED" d="M108.332,47.064l-0.082,5.552L108.332,47.064z"/>
						<path fill-rule="evenodd" clip-rule="evenodd" fill="#DEEFED" d="M108.25,53.646c-0.006,0-0.01,0-0.016,0
							c-0.568-0.008-1.021-0.476-1.014-1.044l0.083-5.552c0.008-0.568,0.478-1.014,1.044-1.014c0.567,0.009,1.021,0.476,1.014,1.044
							l-0.083,5.552C109.27,53.195,108.811,53.646,108.25,53.646z"/>
					</g>
					<g>
						<path fill-rule="evenodd" clip-rule="evenodd" fill="#DEEFED" d="M106.12,48.729l-0.033,2.157L106.12,48.729z"/>
						<path fill-rule="evenodd" clip-rule="evenodd" fill="#DEEFED" d="M106.087,51.915c-0.005,0-0.01,0-0.016,0
							c-0.568-0.009-1.021-0.476-1.013-1.044l0.032-2.157c0.009-0.563,0.468-1.013,1.028-1.013c0.006,0,0.011,0,0.017,0
							c0.567,0.009,1.021,0.476,1.013,1.044l-0.033,2.157C107.106,51.464,106.648,51.915,106.087,51.915z"/>
					</g>
				</g>
				<path fill-rule="evenodd" clip-rule="evenodd" fill="#BCC8E8" d="M111.86,48.539c-0.209,0-0.405-0.13-0.479-0.338
					c-0.095-0.265,0.043-0.556,0.309-0.651l10.833-3.877c0.266-0.095,0.557,0.043,0.651,0.308c0.096,0.265-0.043,0.557-0.308,0.651
					l-10.834,3.877C111.976,48.529,111.918,48.539,111.86,48.539z"/>
				<g>
					<path fill-rule="evenodd" clip-rule="evenodd" fill="#BCC8E8" d="M121.602,56.031c-0.133,0-0.266-0.052-0.366-0.154
						c-0.816-0.842-1.257-1.953-1.24-3.127c0.018-1.174,0.491-2.271,1.334-3.09c0.202-0.195,0.524-0.191,0.721,0.011
						c0.195,0.202,0.19,0.524-0.011,0.721c-0.648,0.628-1.012,1.471-1.025,2.373c-0.013,0.903,0.326,1.756,0.953,2.403
						c0.196,0.202,0.191,0.524-0.011,0.72C121.857,55.983,121.729,56.031,121.602,56.031z"/>
					<path fill-rule="evenodd" clip-rule="evenodd" fill="#BCC8E8" d="M121.684,50.535c-0.133,0-0.265-0.051-0.365-0.154
						c-0.196-0.202-0.191-0.524,0.011-0.72c0.646-0.629,1.011-1.472,1.023-2.373c0.015-0.902-0.324-1.756-0.952-2.404
						c-0.195-0.202-0.19-0.525,0.012-0.72c0.201-0.196,0.524-0.191,0.72,0.011c0.817,0.843,1.258,1.955,1.24,3.128
						c-0.018,1.173-0.491,2.27-1.333,3.088C121.939,50.487,121.812,50.535,121.684,50.535z"/>
				</g>
				<path fill-rule="evenodd" clip-rule="evenodd" fill="#BCC8E8" d="M122.519,56.451c-0.063,0-0.125-0.011-0.187-0.035
					l-10.713-4.199c-0.262-0.103-0.391-0.398-0.288-0.66c0.103-0.262,0.397-0.391,0.66-0.289l10.713,4.199
					c0.263,0.103,0.392,0.398,0.289,0.66C122.914,56.329,122.722,56.451,122.519,56.451z"/>
			</g>
			<g>
				<path fill-rule="evenodd" clip-rule="evenodd" fill="#DEEFED" d="M130.275,30.482c-0.064-0.186-0.092-0.388-0.074-0.596
					c0.067-0.796,0.765-1.387,1.563-1.321c0.392,0.034,9.62,0.905,12.196,9.398c0.229,0.764-0.203,1.573-0.968,1.802
					c-0.765,0.232-1.566-0.217-1.803-0.966c-1.992-6.619-9.592-7.345-9.668-7.351C130.934,31.4,130.457,31.005,130.275,30.482z"/>
				<path fill-rule="evenodd" clip-rule="evenodd" fill="#DEEFED" d="M129.191,24.455c-0.072-0.207-0.099-0.434-0.065-0.667
					c0.104-0.792,0.833-1.348,1.624-1.24c0.652,0.087,16.024,2.311,20.26,17.001c0.223,0.766-0.221,1.569-0.987,1.791
					c-0.768,0.221-1.569-0.229-1.791-0.99c-3.725-12.894-17.726-14.916-17.866-14.935C129.806,25.339,129.364,24.954,129.191,24.455
					z"/>
			</g>
		</g>
		<g>
			<polygon fill-rule="evenodd" clip-rule="evenodd" fill="#AEBFD6" points="83.305,96.522 83.305,131.18 73.278,131.18 
				73.278,102.745 			"/>
			<polygon fill-rule="evenodd" clip-rule="evenodd" fill="#AEBFD6" points="96.294,88.462 96.294,131.18 86.276,131.18 
				86.276,94.678 			"/>
			<polygon fill-rule="evenodd" clip-rule="evenodd" fill="#F39B9C" points="70.139,117.076 70.139,131.266 60.112,131.266 
				60.112,110.918 			"/>
			<polygon fill-rule="evenodd" clip-rule="evenodd" fill="#F39B9C" points="83.305,125.157 83.305,131.266 73.278,131.266 
				73.278,119.002 			"/>
			<polygon fill-rule="evenodd" clip-rule="evenodd" fill="#F39B9C" points="93.256,131.266 86.276,131.266 86.276,126.981 			"/>
			<g>
				<path fill-rule="evenodd" clip-rule="evenodd" fill="#F39B9C" d="M54.131,131.18h48H54.131z"/>
				<rect x="54.131" y="130.494" fill-rule="evenodd" clip-rule="evenodd" fill="#F39B9C" width="48" height="1.372"/>
			</g>
			<linearGradient id="SVGID_7_" gradientUnits="userSpaceOnUse" x1="78.2031" y1="150.1602" x2="78.2031" y2="113.978">
				<stop  offset="0.1232" style="stop-color:#F1F1F2;stop-opacity:0.85"/>
				<stop  offset="0.2847" style="stop-color:#F3F3F4;stop-opacity:0.6934"/>
				<stop  offset="1" style="stop-color:#F8F8F9;stop-opacity:0"/>
				<stop  offset="1" style="stop-color:#FFFFFF;stop-opacity:0"/>
			</linearGradient>
			<polyline fill-rule="evenodd" clip-rule="evenodd" fill="url(#SVGID_7_)" points="60.112,109.82 96.294,109.82 96.294,130.499 
				60.112,130.499 			"/>
		</g>
	</g>
</g>
</svg>
