<?xml version="1.0" encoding="utf-8"?>
<!-- Generator: Adobe Illustrator 16.0.0, SVG Export Plug-In . SVG Version: 6.00 Build 0)  -->
<!DOCTYPE svg PUBLIC "-//W3C//DTD SVG 1.1//EN" "http://www.w3.org/Graphics/SVG/1.1/DTD/svg11.dtd">
<svg version="1.1" id="Layer_1" xmlns="http://www.w3.org/2000/svg" xmlns:xlink="http://www.w3.org/1999/xlink" x="0px" y="0px"
	 width="10px" height="10px" viewBox="0 0 10 10" enable-background="new 0 0 10 10" xml:space="preserve">
<path fill-rule="evenodd" clip-rule="evenodd" fill="#002D70" d="M0.861,8.537C1.506,8.27,2.063,7.841,2.528,7.264
	c0.459-0.583,0.691-1.166,0.691-1.765c0-0.248-0.031-0.464-0.088-0.65c-0.355,0.273-0.737,0.407-1.15,0.407
	c-0.563,0-1.037-0.175-1.414-0.537C0.191,4.364,0,3.884,0,3.281c0-0.567,0.191-1.037,0.578-1.414C0.959,1.491,1.429,1.3,1.981,1.3
	c0.794,0,1.408,0.325,1.832,0.98c0.351,0.546,0.526,1.228,0.526,2.042c0,1.037-0.263,1.965-0.794,2.786
	C3.018,7.934,2.218,8.594,1.15,9.1L0.861,8.537L0.861,8.537z M6.123,8.537C6.768,8.27,7.32,7.841,7.784,7.264
	c0.464-0.583,0.697-1.166,0.697-1.765c0-0.248-0.031-0.464-0.094-0.65c-0.34,0.273-0.722,0.407-1.145,0.407
	c-0.558,0-1.027-0.175-1.408-0.537C5.453,4.364,5.262,3.884,5.262,3.281c0-0.376,0.087-0.712,0.273-1.016
	c0.181-0.299,0.423-0.537,0.723-0.707C6.562,1.388,6.887,1.3,7.243,1.3c0.794,0,1.403,0.325,1.826,0.98
	c0.355,0.546,0.531,1.228,0.531,2.042c0,1.037-0.269,1.965-0.795,2.786C8.274,7.934,7.48,8.594,6.412,9.1L6.123,8.537z"/>
</svg>
