<?xml version="1.0" encoding="utf-8"?>
<!-- Generator: Adobe Illustrator 16.0.0, SVG Export Plug-In . SVG Version: 6.00 Build 0)  -->
<!DOCTYPE svg PUBLIC "-//W3C//DTD SVG 1.1//EN" "http://www.w3.org/Graphics/SVG/1.1/DTD/svg11.dtd">
<svg version="1.1" id="Layer_1" xmlns="http://www.w3.org/2000/svg" xmlns:xlink="http://www.w3.org/1999/xlink" x="0px" y="0px"
	 width="62px" height="43px" viewBox="0 0 62 43" enable-background="new 0 0 62 43" xml:space="preserve">
<polygon fill-rule="evenodd" clip-rule="evenodd" fill="#AFBFD4" points="26.181,30.563 26.181,36.463 22.839,36.463 22.839,32.637 
	"/>
<g>
	<path fill-rule="evenodd" clip-rule="evenodd" fill="#DAEFED" d="M14.351,21.263c0,0,0.272,1.413-1.604,1.836h-0.001
		c0.035,0.687-0.073,1.392-0.345,2.074c-1.012,2.541-3.895,3.781-6.436,2.771c-2.543-1.013-3.784-3.895-2.772-6.436
		c1.012-2.543,3.894-3.784,6.437-2.772c1.396,0.556,2.4,1.676,2.853,2.994C13.126,22.03,14.351,21.263,14.351,21.263z"/>
	<g>
		<g>
			<path fill-rule="evenodd" clip-rule="evenodd" fill="#FFA19E" d="M8.427,23.942c0.003,0.098-0.006,0.313-0.028,0.644
				c-0.007,0.092-0.01,0.415-0.01,0.969l-0.671-0.017c0.013-0.382,0.029-0.92,0.048-1.616c0-0.111-0.006-0.222-0.019-0.33
				c-0.01-0.078-0.026-0.117-0.048-0.117c-0.064,0-0.128,0.032-0.192,0.097c0.003,0.025,0.008,0.061,0.014,0.108
				c0.01,0.062,0.022,0.687,0.039,1.875l-0.647-0.038c0.01-0.946,0.022-1.493,0.038-1.641c-0.025-0.268-0.062-0.401-0.11-0.401
				c-0.029,0-0.056,0.006-0.082,0.018l-0.043,1.022c-0.007,0.195-0.01,0.542-0.01,1.04l-0.661-0.021l0.081-2.515l0.628,0.033
				C6.828,23,6.913,22.97,7.008,22.961c0.131,0,0.249,0.067,0.354,0.201c0.167-0.134,0.336-0.201,0.508-0.201
				c0.208,0,0.352,0.097,0.431,0.289C8.376,23.414,8.417,23.645,8.427,23.942z"/>
			<path fill-rule="evenodd" clip-rule="evenodd" fill="#FFA19E" d="M10.143,23.104l-0.033,1.353
				c-0.003,0.134-0.005,0.5-0.005,1.099l-0.863-0.029l0.196-2.451L10.143,23.104L10.143,23.104z M10.22,22.464L10.22,22.464
				c-0.013,0.089-0.06,0.167-0.14,0.234c-0.083,0.062-0.174,0.093-0.273,0.096c-0.108-0.003-0.206-0.034-0.292-0.096
				c-0.086-0.062-0.129-0.139-0.129-0.234c0-0.1,0.041-0.181,0.124-0.242c0.08-0.061,0.179-0.092,0.297-0.092
				c0.109,0,0.203,0.032,0.283,0.096C10.163,22.288,10.207,22.367,10.22,22.464z"/>
			<path fill-rule="evenodd" clip-rule="evenodd" fill="#FFA19E" d="M13.253,23.972c0.003,0.084,0,0.241-0.009,0.472
				c-0.006,0.182-0.01,0.552-0.01,1.111l-0.743-0.013c0.019-0.142,0.037-0.412,0.053-0.81c0.013-0.189,0.024-0.443,0.033-0.761
				c0.003-0.128-0.018-0.236-0.062-0.325c-0.061-0.114-0.157-0.172-0.288-0.172c-0.112,0-0.212,0.027-0.302,0.08l-0.024,0.756
				c-0.006,0.197-0.009,0.612-0.009,1.244l-0.786-0.021l0.153-2.515l0.686,0.029c0.122-0.058,0.24-0.088,0.354-0.088
				c0.285,0,0.516,0.08,0.695,0.238C13.16,23.392,13.247,23.649,13.253,23.972z"/>
		</g>
	</g>
</g>
<g>
	<path fill-rule="evenodd" clip-rule="evenodd" fill="#DAEFED" d="M48.049,15.894c0,0-0.272,1.413,1.604,1.836l0.001-0.001
		c-0.035,0.687,0.073,1.393,0.345,2.075c1.012,2.541,3.895,3.78,6.436,2.77c2.543-1.012,3.784-3.894,2.772-6.435
		c-1.012-2.543-3.894-3.784-6.437-2.771c-1.396,0.556-2.399,1.675-2.853,2.994C49.273,16.661,48.049,15.894,48.049,15.894z"/>
	<g>
		<path fill-rule="evenodd" clip-rule="evenodd" fill="#AFBFD4" d="M50.986,18.729c0.004,0.118-0.008,0.376-0.035,0.777
			c-0.008,0.111-0.011,0.502-0.011,1.171l-0.812-0.02c0.016-0.461,0.035-1.112,0.058-1.954c0-0.135-0.008-0.268-0.022-0.399
			c-0.012-0.094-0.031-0.141-0.059-0.141c-0.077,0-0.154,0.039-0.231,0.116c0.004,0.03,0.01,0.074,0.018,0.131
			c0.012,0.074,0.026,0.83,0.046,2.267l-0.782-0.045c0.012-1.144,0.027-1.806,0.047-1.984c-0.031-0.323-0.075-0.484-0.133-0.484
			c-0.035,0-0.068,0.006-0.1,0.02l-0.052,1.237c-0.008,0.235-0.012,0.654-0.012,1.257l-0.799-0.025l0.099-3.039l0.759,0.041
			c0.089-0.064,0.19-0.101,0.307-0.111c0.158,0,0.302,0.08,0.429,0.242c0.2-0.162,0.405-0.242,0.614-0.242
			c0.251,0,0.425,0.116,0.521,0.348C50.925,18.089,50.975,18.368,50.986,18.729z"/>
		<path fill-rule="evenodd" clip-rule="evenodd" fill="#AFBFD4" d="M53.808,20.636l-0.893-0.031v-0.04
			c-0.146,0.064-0.287,0.101-0.423,0.111c-0.359-0.014-0.662-0.101-0.909-0.263c-0.274-0.182-0.411-0.422-0.411-0.722
			c0-0.377,0.188-0.673,0.567-0.888c0.251-0.142,0.556-0.212,0.915-0.212c0.093,0,0.203,0.012,0.33,0.036
			c-0.034-0.293-0.19-0.439-0.469-0.439c-0.201,0-0.393,0.049-0.573,0.146l-0.429-0.52c0.362-0.182,0.696-0.272,1.002-0.272
			c0.397,0,0.716,0.118,0.955,0.353c0.217,0.219,0.328,0.507,0.337,0.863c0.003,0.145,0.003,0.281,0,0.409l-0.012,0.419
			c-0.004,0.141-0.006,0.375-0.006,0.702C53.79,20.446,53.796,20.562,53.808,20.636L53.808,20.636z M52.956,19.243L52.956,19.243
			c-0.101-0.023-0.195-0.036-0.284-0.036c-0.205,0-0.367,0.047-0.486,0.142c-0.132,0.108-0.197,0.222-0.197,0.343
			c0,0.131,0.052,0.226,0.156,0.283c0.089,0.054,0.205,0.081,0.348,0.081c0.139,0,0.286-0.047,0.44-0.141L52.956,19.243z"/>
		<path fill-rule="evenodd" clip-rule="evenodd" fill="#AFBFD4" d="M56.958,17.835l-0.967,1.237l0.411,0.616
			c0.178,0.266,0.322,0.453,0.435,0.56l-0.765,0.429l-0.585-0.944l-0.735,0.944l-0.742-0.389c0.22-0.236,0.431-0.478,0.632-0.727
			l0.411-0.52l-0.812-1.302l0.736-0.197l0.579,0.873l0.701-0.873L56.958,17.835z"/>
	</g>
</g>
<circle fill-rule="evenodd" clip-rule="evenodd" fill="#DF9075" cx="20.883" cy="17.849" r="4.674"/>
<path fill-rule="evenodd" clip-rule="evenodd" fill="#DF9075" d="M20.883,22.523h0.009c-0.004,0.046-0.009,0.094-0.014,0.142
	c-0.021,0.227-0.032,0.466-0.032,0.722l-5.75,3.57c2.05-1.993,1.266-6.868,1.131-8.708C16.429,20.642,18.436,22.523,20.883,22.523z"
	/>
<path fill-rule="evenodd" clip-rule="evenodd" fill="#DF9075" d="M30.366,20.892L27.6,19.196l-3.017,1.872
	c0-0.114-0.012-0.219-0.032-0.322c0.631-0.795,1.006-1.801,1.006-2.896c0-2.576-2.08-4.663-4.651-4.674
	C29.927,13.21,30.366,20.892,30.366,20.892z"/>
<path fill-rule="evenodd" clip-rule="evenodd" fill="#EDD1B8" d="M30.365,20.891c0,0-2.263,7.714-7.252,10.986
	c-1.418-0.996-1.765-1.692-2.229-8.514c0.292-0.182,6.716-4.168,6.716-4.168L30.365,20.891z"/>
<polygon fill-rule="evenodd" clip-rule="evenodd" fill="#DF9075" points="24.592,21.061 24.583,21.067 24.583,21.065 "/>
<path fill-rule="evenodd" clip-rule="evenodd" fill="#EDD1B8" d="M30.366,20.892c0,0-0.27,0.903-0.823,2.224
	c-0.011,0.027-0.023,0.055-0.032,0.082c-0.364,0.919-1.49,4.014-1.49,5.396h-1.545c-0.953,1.266-2.042,2.417-3.363,3.283
	c-1.147-0.805-1.894-1.258-2.267-5.078l0-3.46c0.002-0.237,0.014-0.462,0.032-0.674c0.336-3.76,3.314-3.577,3.67-1.929
	c0.023,0.105,0.035,0.212,0.035,0.329v0.002l0.009-0.007l3.008-1.865L30.366,20.892z"/>
<polygon fill-rule="evenodd" clip-rule="evenodd" fill="#EDD1B8" points="24.592,21.061 24.583,21.067 24.583,21.065 "/>
<polygon fill-rule="evenodd" clip-rule="evenodd" fill="#DBBAA1" points="15.096,26.956 20.846,30.486 20.847,23.339 "/>
<path fill-rule="evenodd" clip-rule="evenodd" fill="#DBBAA1" d="M30.366,20.892c0,0-0.27,0.903-0.823,2.224
	c-0.011,0.027-0.023,0.055-0.032,0.082c-0.364,0.919-1.49,4.014-1.49,5.396h-1.545c-0.953,1.266-2.042,2.417-3.363,3.283
	c-1.152-0.809-1.903-1.229-2.267-5.078L30.366,20.892z"/>
<path fill-rule="evenodd" clip-rule="evenodd" fill="#DF9075" d="M25.557,17.85c0,1.095-0.375,2.1-1.006,2.896
	c0-0.002-0.002-0.007-0.002-0.009c-0.352-1.627-3.259-1.826-3.657,1.787h-0.009c-2.448,0-4.454-1.881-4.656-4.274
	c-0.006-0.064-0.011-0.13-0.011-0.197c-0.005-0.066-0.007-0.135-0.007-0.203c0-2.571,2.071-4.653,4.637-4.674h0.06
	C23.478,13.187,25.557,15.274,25.557,17.85z"/>
<polygon fill-rule="evenodd" clip-rule="evenodd" fill="#DAEFED" points="7.883,31.432 15.096,26.956 20.846,30.486 20.846,39.389 
	"/>
<path fill-rule="evenodd" clip-rule="evenodd" fill="#CA82B1" d="M19.327,29.554c0,0-0.297,2.352,1.52,2.352v-1.419L19.327,29.554z"
	/>
<path fill-rule="evenodd" clip-rule="evenodd" fill="#CA82B1" d="M20.846,31.905v7.483l-2.397-1.471
	C18.449,37.918,18.982,33.77,20.846,31.905z"/>
<g>
	<circle opacity="0.45" fill-rule="evenodd" clip-rule="evenodd" fill="#DAEFED" cx="21.599" cy="18.431" r="3.959"/>
	<g>
		<path opacity="0.45" fill-rule="evenodd" clip-rule="evenodd" fill="#9CACE4" d="M15.129,14.531
			c-0.114-0.422-0.386-0.775-0.765-0.993c-0.379-0.218-0.82-0.275-1.243-0.161l-0.12-0.441c0.541-0.146,1.105-0.073,1.59,0.206
			c0.485,0.279,0.833,0.73,0.979,1.27L15.129,14.531z"/>
		<path opacity="0.45" fill-rule="evenodd" clip-rule="evenodd" fill="#9CACE4" d="M17.148,16.081c-0.361,0-0.718-0.094-1.04-0.279
			c-0.486-0.279-0.833-0.73-0.979-1.27l0.441-0.119c0.114,0.422,0.386,0.775,0.766,0.993c0.379,0.218,0.821,0.275,1.244,0.161
			l0.119,0.441C17.517,16.056,17.332,16.081,17.148,16.081z"/>
	</g>
	<g>
		<polygon opacity="0.45" fill-rule="evenodd" clip-rule="evenodd" fill="#DAEFED" points="17.739,15.249 19.35,16.291 
			17.19,16.849 16.875,16.661 		"/>
		<polygon opacity="0.45" fill-rule="evenodd" clip-rule="evenodd" fill="#DAEFED" points="18.78,17.97 17.19,16.849 19.35,16.291 
			19.665,16.479 		"/>
	</g>
</g>
<polygon fill-rule="evenodd" clip-rule="evenodd" fill="#F49C9E" points="15.096,26.956 18.449,37.918 7.883,31.432 "/>
<polygon fill-rule="evenodd" clip-rule="evenodd" fill="#DAEFED" points="36.842,33.793 36.842,23.728 44.029,19.306 52.238,24.342 
	"/>
<path fill-rule="evenodd" clip-rule="evenodd" fill="#CA82B1" d="M38.379,22.813c0,0,0.611,3.073-1.537,3.073v-2.159L38.379,22.813z
	"/>
<path fill-rule="evenodd" clip-rule="evenodd" fill="#CA82B1" d="M36.842,25.887v7.906l2.446-1.502
	C39.288,32.291,38.706,27.751,36.842,25.887z"/>
<path fill-rule="evenodd" clip-rule="evenodd" fill="#EDD1B8" d="M43.086,12.995c0.682,0.734,0.946,1.374,0.946,1.909
	c0,1.529-2.187,2.18-3.076,1.643v1.467c-3.32,2.226-7.402,0.896-7.402,0.896l-1.586-0.972c-0.366-1.067,2.603-6.838,2.603-6.838
	s1.947-1.001,1.795-2.23c0.809-0.802,1.608-1.426,2.722-2.007h0.002l6.955,4.271L43.086,12.995z"/>
<polygon fill-rule="evenodd" clip-rule="evenodd" fill="#EDD1B8" points="36.842,23.728 36.842,19.294 43.086,12.995 45.057,11.756 
	44.032,19.304 "/>
<path fill-rule="evenodd" clip-rule="evenodd" fill="#DBBAA1" d="M44.032,14.904c0,1.529-2.187,2.18-3.076,1.643v1.467
	c-3.271,2.191-7.276,0.935-7.4,0.898l9.53-5.917C43.768,13.729,44.032,14.369,44.032,14.904z"/>
<path fill-rule="evenodd" clip-rule="evenodd" fill="#DF9075" d="M49.729,11.873c0,0.484-0.073,0.953-0.21,1.395
	c-0.326,1.044-1.01,1.927-1.907,2.513l0.01-0.002c-0.07,0.043-0.162,0.099-0.266,0.162c-0.004,0.002-0.009,0.005-0.013,0.009
	c-1.013,0.619-3.31,2.082-3.31,3.353v-4.399c0-0.535-0.266-1.175-0.946-1.909l1.97-1.239c-6.959-1.979-5.967-4.893-5.967-4.893
	s4.335-2.333,8.485,1.074c0.474,0.389,0.941,0.853,1.403,1.401c0.407,0.624,0.665,1.353,0.731,2.135
	c0.007,0.064,0.012,0.13,0.012,0.197C49.726,11.736,49.729,11.804,49.729,11.873z"/>
<circle fill-rule="evenodd" clip-rule="evenodd" fill="#DAEFED" cx="44.156" cy="11.985" r="3.958"/>
<polygon fill-rule="evenodd" clip-rule="evenodd" fill="#AFBFD4" points="39.288,32.291 44.032,19.304 52.238,24.342 "/>
<g>
	<g>
		<g>
			<path fill-rule="evenodd" clip-rule="evenodd" fill="#DAEFED" d="M39.639,11.173l-0.033,2.239L39.639,11.173z"/>
			<path fill-rule="evenodd" clip-rule="evenodd" fill="#DAEFED" d="M39.605,13.755c-0.002,0-0.004,0-0.006,0
				c-0.189-0.002-0.34-0.158-0.338-0.348l0.034-2.24c0.003-0.188,0.155-0.337,0.343-0.337c0.002,0,0.003,0,0.005,0
				c0.189,0.003,0.341,0.159,0.338,0.348l-0.033,2.239C39.945,13.605,39.792,13.755,39.605,13.755z"/>
		</g>
		<g>
			<path fill-rule="evenodd" clip-rule="evenodd" fill="#DAEFED" d="M38.908,11.357l-0.027,1.85L38.908,11.357z"/>
			<path fill-rule="evenodd" clip-rule="evenodd" fill="#DAEFED" d="M38.881,13.551c-0.001,0-0.003,0-0.005,0
				c-0.189-0.003-0.341-0.159-0.338-0.348l0.027-1.85c0.003-0.189,0.159-0.338,0.349-0.338c0.189,0.003,0.34,0.159,0.337,0.348
				l-0.027,1.851C39.221,13.4,39.068,13.551,38.881,13.551z"/>
		</g>
		<g>
			<path fill-rule="evenodd" clip-rule="evenodd" fill="#DAEFED" d="M38.171,11.912l-0.011,0.719L38.171,11.912z"/>
			<path fill-rule="evenodd" clip-rule="evenodd" fill="#DAEFED" d="M38.16,12.974c-0.002,0-0.003,0-0.005,0
				c-0.189-0.003-0.341-0.159-0.338-0.348l0.011-0.718c0.003-0.188,0.156-0.338,0.343-0.338c0.002,0,0.004,0,0.006,0
				c0.189,0.003,0.34,0.159,0.337,0.348l-0.011,0.719C38.5,12.824,38.348,12.974,38.16,12.974z"/>
		</g>
	</g>
	<path fill-rule="evenodd" clip-rule="evenodd" fill="#BCC8E6" d="M40.084,11.849c-0.069,0-0.135-0.043-0.159-0.113
		c-0.031-0.088,0.015-0.186,0.103-0.217l3.61-1.292c0.089-0.032,0.186,0.014,0.217,0.103c0.032,0.088-0.015,0.185-0.103,0.217
		l-3.61,1.292C40.123,11.846,40.104,11.849,40.084,11.849z"/>
	<g>
		<path fill-rule="evenodd" clip-rule="evenodd" fill="#BCC8E6" d="M43.331,14.346c-0.045,0-0.089-0.017-0.122-0.052
			c-0.272-0.28-0.42-0.65-0.414-1.042c0.006-0.391,0.164-0.757,0.444-1.03c0.067-0.065,0.176-0.063,0.24,0.004
			c0.065,0.067,0.064,0.175-0.003,0.24c-0.216,0.209-0.338,0.491-0.342,0.791c-0.004,0.301,0.108,0.585,0.317,0.801
			c0.065,0.067,0.063,0.175-0.003,0.24C43.416,14.33,43.373,14.346,43.331,14.346z"/>
		<path fill-rule="evenodd" clip-rule="evenodd" fill="#BCC8E6" d="M43.357,12.514c-0.044,0-0.088-0.018-0.121-0.052
			c-0.065-0.067-0.063-0.175,0.003-0.24c0.216-0.21,0.338-0.491,0.342-0.791c0.005-0.3-0.108-0.585-0.317-0.801
			c-0.065-0.067-0.063-0.175,0.004-0.24c0.067-0.065,0.175-0.063,0.239,0.003c0.272,0.281,0.42,0.651,0.414,1.043
			c-0.006,0.391-0.164,0.756-0.444,1.029C43.443,12.498,43.4,12.514,43.357,12.514z"/>
	</g>
	<path fill-rule="evenodd" clip-rule="evenodd" fill="#BCC8E6" d="M43.636,14.486c-0.021,0-0.041-0.004-0.062-0.012l-3.57-1.399
		c-0.087-0.034-0.13-0.133-0.096-0.22s0.132-0.13,0.22-0.096l3.57,1.399c0.087,0.034,0.13,0.133,0.096,0.22
		C43.769,14.445,43.704,14.486,43.636,14.486z"/>
</g>
<g>
	<path fill-rule="evenodd" clip-rule="evenodd" fill="#DAEFED" d="M46.222,5.832c-0.022-0.062-0.031-0.129-0.025-0.199
		c0.022-0.265,0.255-0.462,0.521-0.44c0.131,0.012,3.206,0.302,4.064,3.132c0.076,0.254-0.067,0.524-0.322,0.6
		c-0.255,0.078-0.521-0.072-0.601-0.322c-0.664-2.206-3.196-2.447-3.223-2.449C46.44,6.137,46.282,6.005,46.222,5.832z"/>
	<path fill-rule="evenodd" clip-rule="evenodd" fill="#DAEFED" d="M45.86,3.823c-0.024-0.069-0.033-0.145-0.022-0.222
		c0.035-0.264,0.277-0.449,0.541-0.414c0.218,0.029,5.341,0.771,6.752,5.666c0.074,0.255-0.073,0.523-0.329,0.597
		s-0.523-0.076-0.597-0.33c-1.241-4.297-5.907-4.971-5.954-4.977C46.064,4.117,45.918,3.989,45.86,3.823z"/>
</g>
<polygon fill-rule="evenodd" clip-rule="evenodd" fill="#AFBFD4" points="30.568,27.84 30.568,39.389 27.227,39.389 27.227,29.913 
	"/>
<polygon fill-rule="evenodd" clip-rule="evenodd" fill="#AFBFD4" points="34.897,25.153 34.897,39.389 31.559,39.389 31.559,27.225 
	"/>
<polygon fill-rule="evenodd" clip-rule="evenodd" fill="#F49C9E" points="26.181,34.688 26.181,39.418 22.839,39.418 22.839,32.637 
	"/>
<polygon fill-rule="evenodd" clip-rule="evenodd" fill="#F49C9E" points="30.568,37.382 30.568,39.418 27.227,39.418 27.227,35.331 
	"/>
<polygon fill-rule="evenodd" clip-rule="evenodd" fill="#F49C9E" points="33.884,39.418 31.559,39.418 31.559,37.99 "/>
<g>
	<path fill-rule="evenodd" clip-rule="evenodd" fill="#F49C9E" d="M20.846,39.389h15.996H20.846z"/>
	<rect x="20.846" y="39.16" fill-rule="evenodd" clip-rule="evenodd" fill="#F49C9E" width="15.996" height="0.457"/>
</g>
</svg>
