<?xml version="1.0" encoding="utf-8"?>
<!-- Generator: Adobe Illustrator 16.0.0, SVG Export Plug-In . SVG Version: 6.00 Build 0)  -->
<!DOCTYPE svg PUBLIC "-//W3C//DTD SVG 1.1//EN" "http://www.w3.org/Graphics/SVG/1.1/DTD/svg11.dtd">
<svg version="1.1" id="Layer_1" xmlns="http://www.w3.org/2000/svg" xmlns:xlink="http://www.w3.org/1999/xlink" x="0px" y="0px"
	 width="62px" height="43px" viewBox="0 0 62 43" enable-background="new 0 0 62 43" xml:space="preserve">
<path fill-rule="evenodd" clip-rule="evenodd" fill="#46A5C6" d="M5.85,20.935l0.063,0.079l14.563,18.242
	C15.764,41.839,1.3,33.367,5.85,20.935z"/>
<path fill-rule="evenodd" clip-rule="evenodd" fill="#9AD6FD" d="M16.934,34.819l8.16-16.369h1.987
	c0.121,3.419-0.139,14.107-6.605,20.806L16.934,34.819z"/>
<polygon fill-rule="evenodd" clip-rule="evenodd" fill="#F49C9E" points="14.404,16.868 16.924,17.166 16.934,20.005 "/>
<polygon fill-rule="evenodd" clip-rule="evenodd" fill="#F49C9E" points="16.934,20.005 16.934,34.819 13.568,30.603 "/>
<polygon fill-rule="evenodd" clip-rule="evenodd" fill="#9AD6FD" points="5.85,20.935 11.104,16.71 16.934,20.005 13.568,30.603 "/>
<polygon fill-rule="evenodd" clip-rule="evenodd" fill="#F9F9F9" points="11.104,16.71 13.032,15.161 16.934,20.005 13.752,20.005 
	"/>
<path fill-rule="evenodd" clip-rule="evenodd" fill="#FF8A60" d="M13.367,9.463v3.541l-1.147-1.427c0,0-1.89-0.367-1.89,1.218
	c0,1.683,1.919,1.391,1.919,1.391l0.783,0.973l-1.928,1.55c-0.798-0.074-2.727-0.971-3.856-2.793l6.694-5.382
	C13.29,9.06,13.367,9.463,13.367,9.463z"/>
<path fill-rule="evenodd" clip-rule="evenodd" fill="#EDD1B8" d="M19.054,12.724l0.843,3.429l-2.973,1.012
	c0,0-1.697,0.726-2.52-0.298s-1.372-1.708-1.372-1.708l-0.783-0.973c0,0-1.919,0.292-1.919-1.391c0-1.585,1.89-1.218,1.89-1.218
	l1.147,1.427V9.463c0,0-0.078-0.403,0.575-0.928c0.653-0.526,2.542-2.043,2.542-2.043c1.135,0.973,1.473,2.109,1.473,2.109
	s-0.404,0.471,0.363,1.425c0.767,0.953,1.555,1.933,1.555,1.933s0.109,0.242-0.155,0.409C19.455,12.534,19.054,12.724,19.054,12.724
	z"/>
<path fill-rule="evenodd" clip-rule="evenodd" fill="#46A5C6" d="M13.942,8.536c0,0,4.875,0.833,4.982-4.005L13.942,8.536z"/>
<path fill-rule="evenodd" clip-rule="evenodd" fill="#9AD6FD" d="M16.484,6.492c0,0-0.001,0.002-0.005,0.005L16.462,6.51
	c-0.035,0.028-0.111,0.089-0.217,0.174l-0.066,0.053c-0.562,0.452-1.747,1.404-2.237,1.798l-6.694,5.382
	c-0.515-0.83-0.863-1.852-0.863-3.075c0-2.014,1.133-5.712,6.03-5.712C14.344,5.13,15.636,5.765,16.484,6.492z"/>
<path fill-rule="evenodd" clip-rule="evenodd" fill="#FF8A60" d="M19.054,12.724c0,0-2.13-0.023-2.13,4.441l2.973-1.012
	L19.054,12.724z"/>
<g>
	<path fill-rule="evenodd" clip-rule="evenodd" fill="#46A5C6" d="M21.583,14.505l-1.266-0.026v-0.625c0,0,0.498-0.538,0.75-0.813
		c0.514-0.021,1.263,0.018,1.845,0C23.355,13.027,21.583,14.505,21.583,14.505z"/>
	<circle fill-rule="evenodd" clip-rule="evenodd" fill="#46A5C6" cx="22.912" cy="14.376" r="1.335"/>
	<polygon fill-rule="evenodd" clip-rule="evenodd" fill="#FDE6E6" points="21.285,13.648 21.651,13.251 22.222,13.251 
		21.854,13.648 	"/>
</g>
<path fill-rule="evenodd" clip-rule="evenodd" fill="#EDD1B8" d="M27.061,18.096l0.278-4.218l-1.586-1.924l-3.307-0.593
	c-0.052,0.816,0.677,0.938,0.677,0.938l2.108,0.489l0.25,1.265c0.347,1.928-0.938,1.04-0.938,1.04l-1.1-0.824
	c-0.747-0.313-0.861,0.026-0.861,0.026l2.083,3.073L27.061,18.096z"/>
<path fill-rule="evenodd" clip-rule="evenodd" fill="#F9F9F9" d="M24.146,10.833c-0.024-0.028-0.043-0.061-0.056-0.098
	c-0.046-0.143,0.034-0.296,0.177-0.342c0.071-0.023,1.739-0.535,2.798,0.758c0.095,0.117,0.078,0.288-0.039,0.383
	s-0.288,0.075-0.383-0.039c-0.822-1.008-2.197-0.588-2.211-0.584C24.326,10.945,24.215,10.911,24.146,10.833z"/>
<path fill-rule="evenodd" clip-rule="evenodd" fill="#F9F9F9" d="M23.523,9.862c-0.027-0.031-0.048-0.068-0.06-0.111
	c-0.039-0.145,0.048-0.294,0.194-0.333c0.12-0.032,2.954-0.75,4.748,1.501c0.094,0.117,0.075,0.289-0.043,0.382
	s-0.29,0.073-0.383-0.043c-1.575-1.976-4.157-1.321-4.183-1.313C23.694,9.972,23.59,9.937,23.523,9.862z"/>
<path fill-rule="evenodd" clip-rule="evenodd" fill="#F9F9F9" d="M22.729,17.896c0.025,0.028,0.044,0.061,0.056,0.098
	c0.046,0.144-0.033,0.296-0.177,0.342c-0.07,0.022-1.739,0.535-2.797-0.758c-0.095-0.116-0.078-0.288,0.038-0.383
	c0.117-0.095,0.289-0.075,0.383,0.039c0.823,1.008,2.197,0.588,2.211,0.583C22.549,17.784,22.66,17.819,22.729,17.896z"/>
<path fill-rule="evenodd" clip-rule="evenodd" fill="#F9F9F9" d="M23.352,18.868c0.028,0.03,0.048,0.068,0.06,0.111
	c0.039,0.146-0.048,0.294-0.193,0.333c-0.12,0.032-2.955,0.75-4.748-1.501c-0.094-0.118-0.074-0.289,0.043-0.382
	s0.29-0.073,0.382,0.043c1.576,1.976,4.157,1.321,4.183,1.314C23.181,18.758,23.286,18.793,23.352,18.868z"/>
<path fill-rule="evenodd" clip-rule="evenodd" fill="#FDE6E6" d="M39.402,7.773c0,1.645-1.43,1.623-1.43,1.623s0,0.174,0,1.342
	v1.018c0,2.091-1.937,2.292-1.937,2.292h-3.601l-0.954-5.217c0.954-0.969,0-2.027,0-2.027V4.668h5.538v3.91l0.612-1.952
	C37.632,6.626,39.402,6.241,39.402,7.773z"/>
<path fill-rule="evenodd" clip-rule="evenodd" fill="#BC7257" d="M39.017,10.53l-1.044,0.208c0-1.168,0-1.342,0-1.342
	s1.43,0.022,1.43-1.623c0-1.532-1.771-1.146-1.771-1.146L37.02,8.578c0,0,0-2.875,0-3.268c0-0.643-0.624-0.643-0.624-0.643h-4.914
	c-1.18-0.439-1.407-1.695-1.407-1.695l8.352-1.906C45.416,6.044,39.017,10.53,39.017,10.53z"/>
<path fill-rule="evenodd" clip-rule="evenodd" fill="#95D6D4" d="M46.56,20.301c-1.591,1.366-1.591,2.996-1.591,5.569
	c0,2.159-4.001,4.364-8.309,4.364c-0.093,0-0.186,0-0.278-0.003l3.487-6.995l5.724-11.481C44.311,14.397,45.075,17.47,46.56,20.301z
	"/>
<path fill-rule="evenodd" clip-rule="evenodd" fill="#5BA89C" d="M45.593,11.755l11.831,14.716l-3.596,2.892
	C53.828,29.362,42.096,18.961,45.593,11.755z"/>
<path fill-rule="evenodd" clip-rule="evenodd" fill="#95D6D4" d="M57.424,26.471L43.61,37.577l-1.375-1.711
	c0,0,6.086-9.233,12.086-13.255L57.424,26.471z"/>
<polygon fill-rule="evenodd" clip-rule="evenodd" fill="#5BA89C" points="39.87,23.236 39.87,16.868 37.973,11.755 45.593,11.755 
	"/>
<path fill-rule="evenodd" clip-rule="evenodd" fill="#95D6D4" d="M39.87,17.196L37.02,13.65c0,0,0.953-0.507,0.953-1.895v-1.018
	c0-1.168,0-1.342,0-1.342l1.897,2.359V17.196z"/>
<polygon fill-rule="evenodd" clip-rule="evenodd" fill="#95D6D4" points="33.797,17.196 33.797,14.047 35.643,14.047 35.643,15.712 
	"/>
<polygon fill-rule="evenodd" clip-rule="evenodd" fill="#F9F9F9" points="35.643,31.716 35.643,14.047 37.02,13.65 39.87,17.196 
	39.87,23.236 "/>
<polygon fill-rule="evenodd" clip-rule="evenodd" fill="#FF7EA3" points="35.643,15.712 35.643,14.047 37.02,13.65 37.485,14.23 "/>
<rect x="33.797" y="17.196" fill-rule="evenodd" clip-rule="evenodd" fill="#95D6D4" width="1.846" height="14.52"/>
<path fill-rule="evenodd" clip-rule="evenodd" fill="#F49C9E" d="M35.643,15.712c0,0-4.245,3.413-5.562,4.471
	c-1.73,1.391-1.73,3.041-1.73,5.687c0,0,0-1.085,1.962-2.662c0.96-0.772,3.452-2.775,4.141-3.33
	C35.394,19.123,35.643,18.983,35.643,15.712z"/>
<path fill-rule="evenodd" clip-rule="evenodd" fill="#F49C9E" d="M54.332,12.096c0,0-6.315,5.077-7.632,6.136
	c-1.73,1.392-1.73,3.041-1.73,5.688c0,0,0-1.085,1.962-2.663c0.961-0.772,5.521-4.439,6.211-4.994
	C54.082,15.507,54.332,15.367,54.332,12.096z"/>
<path fill-rule="evenodd" clip-rule="evenodd" fill="#F49C9E" d="M28.351,25.87c0,2.159,4.002,4.364,8.31,4.364
	s8.31-2.205,8.31-4.364v2.82c0,2.159-4.002,4.364-8.31,4.364s-8.31-2.205-8.31-4.364V25.87z"/>
<polygon fill-rule="evenodd" clip-rule="evenodd" fill="#FDE6E6" points="54.332,12.096 52.935,15.17 54.771,13.693 "/>
<path fill-rule="evenodd" clip-rule="evenodd" fill="#EDD1B8" d="M33.797,4.668v9.379h-1.361l-0.954-5.217
	c0.954-0.969,0-2.027,0-2.027V4.668H33.797z"/>
<path fill-rule="evenodd" clip-rule="evenodd" fill="#9E6050" d="M36.395,4.668h-4.913c-1.18-0.439-1.407-1.695-1.407-1.695
	l1.979-0.452C32.055,2.521,31.527,4.668,36.395,4.668z"/>
<path fill-rule="evenodd" clip-rule="evenodd" fill="#EDD1B8" d="M41.696,37.986l0.135-1.877l-1.961,0.002l-1.932,1.444
	l-1.928,1.441c0,0,0.124,0.484,0.778,0.241c0.653-0.243,1.231-0.574,1.231-0.574l-0.832,1.08l-2.535,1.075
	c0,0-0.741,0.436-0.485,0.914l4.49-1.453L41.696,37.986z"/>
<path fill-rule="evenodd" clip-rule="evenodd" fill="#EDD1B8" d="M35.077,40.116c0,0-0.437,0.316-0.215,0.525l2.452-1.178
	L35.077,40.116z"/>
<rect x="31.482" y="4.972" fill-rule="evenodd" clip-rule="evenodd" fill="#F49C9E" width="10.394" height="1.281"/>
<path fill-rule="evenodd" clip-rule="evenodd" fill="none" d="M37.045,9.127c0,0.155-0.098,0.817-1.125,0.817s-2.125,0-2.125,0
	l-0.011-0.817C37.374,8.034,37.045,8.843,37.045,9.127z"/>
<path fill-rule="evenodd" clip-rule="evenodd" fill="#F9F9F9" d="M43.364,11.315c-0.088,0-0.176-0.037-0.239-0.108
	c-0.115-0.132-0.103-0.333,0.029-0.448l4.972-4.375c0.132-0.115,0.333-0.103,0.449,0.029c0.115,0.131,0.103,0.333-0.029,0.448
	l-4.972,4.375C43.514,11.289,43.438,11.315,43.364,11.315z"/>
<path fill-rule="evenodd" clip-rule="evenodd" fill="#F9F9F9" d="M47.97,11.844c-0.087,0-0.174-0.036-0.236-0.105
	c-0.117-0.13-0.106-0.332,0.024-0.449l5.804-5.208c0.131-0.117,0.331-0.106,0.448,0.024c0.117,0.13,0.106,0.332-0.024,0.449
	l-5.803,5.208C48.121,11.817,48.046,11.844,47.97,11.844z"/>
<path fill-rule="evenodd" clip-rule="evenodd" fill="#F9F9F9" d="M48.486,14.073c-0.087,0-0.174-0.036-0.236-0.106
	c-0.117-0.13-0.106-0.331,0.024-0.448l2.696-2.42c0.131-0.117,0.332-0.106,0.449,0.024c0.117,0.13,0.106,0.331-0.024,0.449
	l-2.697,2.42C48.638,14.046,48.562,14.073,48.486,14.073z"/>
</svg>
