<?xml version="1.0" encoding="utf-8"?>
<!-- Generator: Adobe Illustrator 16.0.0, SVG Export Plug-In . SVG Version: 6.00 Build 0)  -->
<!DOCTYPE svg PUBLIC "-//W3C//DTD SVG 1.1//EN" "http://www.w3.org/Graphics/SVG/1.1/DTD/svg11.dtd">
<svg version="1.1" id="Layer_1" xmlns="http://www.w3.org/2000/svg" xmlns:xlink="http://www.w3.org/1999/xlink" x="0px" y="0px"
	 width="62px" height="43px" viewBox="0 0 62 43" enable-background="new 0 0 62 43" xml:space="preserve">
<polygon fill-rule="evenodd" clip-rule="evenodd" fill="#BCCADB" points="30.788,17.709 25.495,14.451 24.114,17.709 20.629,27.954 
	30.788,33.345 "/>
<polygon fill-rule="evenodd" clip-rule="evenodd" fill="#DBE6F6" points="28.811,17.709 25.495,20.213 25.495,14.554 "/>
<polygon fill-rule="evenodd" clip-rule="evenodd" fill="#DBE6F6" points="20.653,27.961 17.337,30.465 17.337,24.806 "/>
<path fill-rule="evenodd" clip-rule="evenodd" fill="#FF8960" d="M33.05,5.917c0,0-1.929-3.482-6.638-3.482
	c-4.709,0-6.608,4.551-6.608,6.53c0,1.979,1.533,4.79,1.533,4.79s2.437,2.343,4.157,3.956l-0.002-3.771l1.8-1.512L33.05,5.917z"/>
<path fill-rule="evenodd" clip-rule="evenodd" fill="#EDD1B8" d="M33.904,12.67c0,0-0.415,0.62-1.091,0.62l0.003,4.419
	c0,0-3.009,0-4.159,0c-1.56,0-3.173-1.077-3.173-3.067c0-1.148,0-1.392,0-1.392c-2.572-1.264-1.944-4.095-0.59-4.095
	c0.365,0,1.042,0.195,1.142,0.491l0.099,2.523c1.029,0,1.029-1.903,1.029-2.111l5.886-4.142l0.004,3.094
	c0,0-0.465,0.119-0.465,0.868C32.589,10.629,33.904,12.67,33.904,12.67z"/>
<polygon fill-rule="evenodd" clip-rule="evenodd" fill="#BCCADB" points="22.642,35.409 17.336,32.594 17.337,30.465 20.638,27.947 
	22.642,29.022 "/>
<path fill-rule="evenodd" clip-rule="evenodd" fill="#F49C9E" d="M22.642,27.973h-1.978c0,0,0.247,2.216,1.978,2.216V27.973z"/>
<path fill-rule="evenodd" clip-rule="evenodd" fill="#BC7257" d="M25.493,17.709c0-1.029-2.127-4.108-5.928-4.108
	c-3.974,0-6.648,2.232-6.648,6.034c0,4.553,4.033,6.367,4.42,6.573c0,0-0.003-1.135-0.003-2.645
	C17.334,19.602,25.493,18.421,25.493,17.709z"/>
<path fill-rule="evenodd" clip-rule="evenodd" fill="#EDD1B8" d="M26.123,24.189c0,0-0.192,0.414-0.867,0.414l0.002,4.48
	l-7.918-2.969l-0.005-2.552c-2.572-1.264-1.353-3.777,0.002-3.777c1.354,0,1.362,1.484,1.362-0.25c0-0.976,0.234-1.827,1.954-1.827
	h4.841c0,1.511,0.002,2.503,0.002,2.503s-0.464,0.119-0.464,0.868C25.031,21.832,26.123,24.189,26.123,24.189z"/>
<path fill-rule="evenodd" clip-rule="evenodd" fill="#BC7257" d="M21.658,26.684c0,0,0.612-2.08,3.598-2.08
	c0,0,0.002,4.005,0.002,4.48c0,0.475-0.641,0.986-1.281,0.646c-0.64-0.34-6.639-3.522-6.639-3.522l-0.593-1.449l0.59-1.195
	l0.002-3.777l1.363-2.346v5.692C18.7,23.133,19.048,26.684,21.658,26.684z"/>
<path fill-rule="evenodd" clip-rule="evenodd" fill="#F49C9E" d="M30.788,17.709h-1.977c0,0,0.247,2.216,1.977,2.216V17.709z"/>
<path fill-rule="evenodd" clip-rule="evenodd" fill="#F49C9E" d="M30.788,19.925v13.419l-1.972-1.047c0,0-0.005-8.949-0.005-9.444
	C28.811,22.359,29.189,19.925,30.788,19.925z"/>
<path fill-rule="evenodd" clip-rule="evenodd" fill="#F49C9E" d="M22.642,30.188v5.221l-1.978-1.05c0,0,0-0.748,0-1.242
	C20.664,32.622,21.042,30.188,22.642,30.188z"/>
<path fill-rule="evenodd" clip-rule="evenodd" fill="#BCCADB" d="M38.561,13.359v11.714h-4.548
	c-0.399,0.023-0.913,0.198-0.913,1.271v8.227l4.177,2.217l6.745,3.579c-1.917-1.018-1.583-3.579-1.583-3.579h1.583V26.344
	c0-1.072,0.647-1.247,1.006-1.271c0.109-0.007,0.19,0,0.222,0c0.132,0,0.395,0.069,0.793,0.28c0.398,0.212,1.415,0.751,1.415,0.751
	c0.468,0.248,0.799,0.239,0.799,0.239s1.228,0.125,1.228-1.271V13.359H38.561z"/>
<path fill-rule="evenodd" clip-rule="evenodd" fill="#231F1F" d="M45.027,25.112h0.222v-0.079c-0.008,0-0.018,0-0.031-0.001
	c-0.041-0.001-0.109-0.004-0.192,0.001L45.027,25.112z"/>
<path fill-rule="evenodd" clip-rule="evenodd" fill="#9AA8B6" d="M44.021,26.344v0.003h4.312c-0.048,0-0.077-0.003-0.077-0.003
	s-0.331,0.009-0.799-0.239c0,0-1.017-0.539-1.415-0.751c-0.398-0.211-0.661-0.28-0.793-0.28c-0.031,0-0.112-0.007-0.222,0
	C44.669,25.097,44.021,25.271,44.021,26.344z"/>
<path fill-rule="evenodd" clip-rule="evenodd" fill="#FFFFFF" d="M34.761,29.134h5.543c0.145,0,0.262-0.104,0.262-0.231
	c0-0.128-0.117-0.231-0.262-0.231h-5.543c-0.146,0-0.263,0.104-0.263,0.231C34.498,29.029,34.615,29.134,34.761,29.134z"/>
<path fill-rule="evenodd" clip-rule="evenodd" fill="#FFFFFF" d="M34.761,30.698h5.543c0.145,0,0.262-0.104,0.262-0.23
	c0-0.128-0.117-0.231-0.262-0.231h-5.543c-0.146,0-0.263,0.104-0.263,0.231C34.498,30.595,34.615,30.698,34.761,30.698z"/>
<path fill-rule="evenodd" clip-rule="evenodd" fill="#FFFFFF" d="M34.761,32.276h5.543c0.145,0,0.262-0.104,0.262-0.231
	c0-0.127-0.117-0.231-0.262-0.231h-5.543c-0.146,0-0.263,0.104-0.263,0.231C34.498,32.173,34.615,32.276,34.761,32.276z"/>
<rect x="41.568" y="28.289" fill-rule="evenodd" clip-rule="evenodd" fill="#EFE2F2" width="1.147" height="1.147"/>
<rect x="41.568" y="29.894" fill-rule="evenodd" clip-rule="evenodd" fill="#EFE2F2" width="1.147" height="1.147"/>
<rect x="41.568" y="31.472" fill-rule="evenodd" clip-rule="evenodd" fill="#EFE2F2" width="1.147" height="1.147"/>
<g>
	<g>
		<path fill-rule="evenodd" clip-rule="evenodd" fill="#FFA19E" d="M37.65,13.372c-0.243,1.617,0.29,2.997,1.603,4.139l0.591,0.481
			c0.883,0.767,1.347,1.62,1.391,2.559l2.452-0.141l-0.031-0.445c-0.223-1.078-0.705-1.952-1.445-2.624l-0.882-0.823
			c-0.988-0.919-1.426-1.949-1.312-3.088c0.141-0.55,0.437-0.997,0.887-1.339c0.464-0.328,0.967-0.451,1.511-0.369
			c1.089,0.164,2.067,1.101,2.937,2.811l0.253,0.598l1.515-1.395c-1.149-2.311-2.624-3.602-4.424-3.873
			c-1.283-0.193-2.406,0.06-3.367,0.761C38.383,11.301,37.824,12.217,37.65,13.372z"/>
	</g>
	<path fill-rule="evenodd" clip-rule="evenodd" fill="#FF8A60" d="M45.287,15.274l0.183,0.686c0,0,1.41,1.284,2.155-0.573
		L47.443,14.7L45.287,15.274z"/>
	<g>
		<path fill-rule="evenodd" clip-rule="evenodd" fill="#D89595" d="M41.039,20.617l0.598-0.028l-0.02-0.408
			c-0.045-0.967-0.521-1.851-1.416-2.627l-0.007-0.006l-0.555-0.451c-1.164-1.016-1.625-2.204-1.409-3.634
			c0.152-1.017,0.631-1.801,1.462-2.398c0.851-0.62,1.819-0.837,2.96-0.666c1.59,0.24,2.92,1.416,3.955,3.495l0.535-0.266
			c-1.127-2.265-2.607-3.55-4.4-3.82c-1.287-0.194-2.431,0.066-3.4,0.772c-0.953,0.686-1.527,1.626-1.703,2.793
			c-0.245,1.627,0.298,3.033,1.612,4.178l0.008,0.006l0.554,0.451c0.774,0.674,1.17,1.394,1.207,2.202L41.039,20.617z"/>
	</g>
	<g>
		<path fill-rule="evenodd" clip-rule="evenodd" fill="#FFCCCC" d="M43.197,20.485l0.63-0.063l-0.073-0.714
			c-0.235-1.14-0.755-2.08-1.543-2.793l-0.878-0.82c-0.914-0.85-1.312-1.766-1.215-2.801c0.125-0.471,0.374-0.844,0.761-1.14
			c0.397-0.279,0.814-0.381,1.277-0.312c0.976,0.147,1.885,1.036,2.701,2.641l0.564-0.287c-0.915-1.798-1.981-2.801-3.172-2.98
			c-0.625-0.094-1.21,0.048-1.74,0.424l-0.009,0.006c-0.508,0.385-0.845,0.895-1.002,1.514l-0.009,0.046
			c-0.124,1.237,0.351,2.365,1.411,3.351l0.881,0.823c0.687,0.621,1.139,1.441,1.349,2.439L43.197,20.485z"/>
	</g>
	
		<rect x="44.902" y="13.876" transform="matrix(-0.931 0.365 -0.365 -0.931 94.4723 11.2549)" fill-rule="evenodd" clip-rule="evenodd" fill="#DBE6F6" width="2.542" height="1.36"/>
	<g>
		<path fill-rule="evenodd" clip-rule="evenodd" fill="#EDD1B8" d="M41.914,22.938c0.417-0.019,0.79,0.007,1.1,0.05L43.924,21
			c-0.458-0.132-1.557-0.374-2.921-0.167L41.914,22.938z"/>
		<path fill-rule="evenodd" clip-rule="evenodd" fill="#FF8A60" d="M41.915,22.938c0.416-0.019,0.789,0.007,1.099,0.049l-0.554,1.21
			L41.915,22.938z"/>
		<path fill-rule="evenodd" clip-rule="evenodd" fill="#E46E4D" d="M42.46,24.197l-0.184-1.265c-0.116-0.001-0.237,0-0.362,0.006
			L42.46,24.197z"/>
		<path fill-rule="evenodd" clip-rule="evenodd" fill="#DBBAA1" d="M41.914,22.938c0.125-0.006,0.246-0.007,0.362-0.006
			l-0.317-2.178c-0.298,0.005-0.619,0.028-0.956,0.08L41.914,22.938z"/>
	</g>
</g>
</svg>
